<?xml version="1.0" standalone="no"?>
<!DOCTYPE svg PUBLIC "-//W3C//DTD SVG 1.1//EN" "http://www.w3.org/Graphics/SVG/1.1/DTD/svg11.dtd" >
<svg xmlns="http://www.w3.org/2000/svg" xmlns:xlink="http://www.w3.org/1999/xlink" version="1.1">
<metadata>
Created by FontForge 20190801 at Thu Jun 21 13:06:47 2018
 By www-data
(c) 2018 Microsoft Corporation. All Rights Reserved.
</metadata>
<defs>
<font id="segmdl2" horiz-adv-x="2048" >
  <font-face 
    font-family="segmdl2"
    font-weight="400"
    font-stretch="normal"
    units-per-em="2048"
    panose-1="5 10 1 2 1 1 1 1 1 1"
    ascent="2048"
    descent="0"
    bbox="-1 -5 5240 2048"
    underline-thickness="119"
    underline-position="-236"
    unicode-range="U+000D-F785"
  />
<missing-glyph horiz-adv-x="1322" 
d="M166 0v1398h990v-1398h-990zM314 148h694v1102h-694v-1102z" />
    <glyph glyph-name=".notdef" horiz-adv-x="1322" 
d="M166 0v1398h990v-1398h-990zM314 148h694v1102h-694v-1102z" />
    <glyph glyph-name=".null" horiz-adv-x="0" 
 />
    <glyph glyph-name="uni000D" unicode="&#xd;" horiz-adv-x="0" 
 />
    <glyph glyph-name="space" unicode=" " horiz-adv-x="561" 
 />
    <glyph glyph-name="uniE001" unicode="&#xe001;" 
d="M1837 1491l-1069 -1070l-557 558l90 90l467 -466l979 978z" />
    <glyph glyph-name="uniE001" unicode="&#xe73e;" 
d="M1837 1491l-1069 -1070l-557 558l90 90l467 -466l979 978z" />
    <glyph glyph-name="uniE001" unicode="&#xe008;" 
d="M1837 1491l-1069 -1070l-557 558l90 90l467 -466l979 978z" />
    <glyph glyph-name="uniE002" unicode="&#xe002;" 
d="M2048 2048v-2048h-2048v2048h2048z" />
    <glyph glyph-name="uniE002" unicode="&#xe73b;" 
d="M2048 2048v-2048h-2048v2048h2048z" />
    <glyph glyph-name="uniE002" unicode="&#xe009;" 
d="M2048 2048v-2048h-2048v2048h2048z" />
    <glyph glyph-name="uniE003" unicode="&#xe003;" 
d="M2048 2048v-2048h-2048v2048h2048zM1920 1920h-1792v-1792h1792v1792z" />
    <glyph glyph-name="uniE003" unicode="&#xe739;" 
d="M2048 2048v-2048h-2048v2048h2048zM1920 1920h-1792v-1792h1792v1792z" />
    <glyph glyph-name="uniE004" unicode="&#xe004;" 
d="M1536 1536v-1024h-1024v1024h1024z" />
    <glyph glyph-name="uniE004" unicode="&#xe73c;" 
d="M1536 1536v-1024h-1024v1024h1024z" />
    <glyph glyph-name="uniE005" unicode="&#xe005;" 
d="M2048 2048v-2048h-2048v2048h2048zM1709 1363l-90 90l-851 -850l-339 338l-90 -90l429 -430z" />
    <glyph glyph-name="uniE005" unicode="&#xe73d;" 
d="M2048 2048v-2048h-2048v2048h2048zM1709 1363l-90 90l-851 -850l-339 338l-90 -90l429 -430z" />
    <glyph glyph-name="uniE006" unicode="&#xe006;" 
d="M1504 1920q113 0 212 -43t173 -116.5t116.5 -173t42.5 -211.5q0 -109 -41.5 -209t-117.5 -176l-865 -864l-865 864q-76 76 -117.5 176t-41.5 209q0 112 42.5 211.5t116.5 173t173 116.5t212 43q83 0 148 -19t120.5 -52.5t106 -80.5t105.5 -103q55 56 105.5 103t106 80.5
t120.5 52.5t148 19zM1798 1082q59 59 90 135t31 159q0 87 -32 162.5t-88.5 131t-132 87t-162.5 31.5q-84 0 -149 -26.5t-120 -69.5t-105.5 -97.5t-105.5 -110.5q-54 54 -105 109t-106.5 99t-121 72t-147.5 28q-86 0 -162 -32.5t-132.5 -89t-89 -132.5t-32.5 -162
q0 -83 31.5 -159t90.5 -135l774 -774z" />
    <glyph glyph-name="uniE006" unicode="&#xeb51;" 
d="M1504 1920q113 0 212 -43t173 -116.5t116.5 -173t42.5 -211.5q0 -109 -41.5 -209t-117.5 -176l-865 -864l-865 864q-76 76 -117.5 176t-41.5 209q0 112 42.5 211.5t116.5 173t173 116.5t212 43q83 0 148 -19t120.5 -52.5t106 -80.5t105.5 -103q55 56 105.5 103t106 80.5
t120.5 52.5t148 19zM1798 1082q59 59 90 135t31 159q0 87 -32 162.5t-88.5 131t-132 87t-162.5 31.5q-84 0 -149 -26.5t-120 -69.5t-105.5 -97.5t-105.5 -110.5q-54 54 -105 109t-106.5 99t-121 72t-147.5 28q-86 0 -162 -32.5t-132.5 -89t-89 -132.5t-32.5 -162
q0 -83 31.5 -159t90.5 -135l774 -774z" />
    <glyph glyph-name="uniE007" unicode="&#xe007;" 
d="M1505 1920q75 0 144.5 -19.5t129.5 -54.5t110 -85t85 -110t54.5 -129.5t19.5 -144.5q0 -108 -41.5 -208t-117.5 -176l-865 -865l-865 865q-76 76 -117.5 176t-41.5 208q0 75 19.5 144.5t54.5 129.5t85 110t110 85t129.5 54.5t144.5 19.5q109 0 211.5 -43t178.5 -122
l-282 -283l448 -448l-294 -293l91 -91l384 384l-448 448q49 49 97 101.5t97 102t102 94t111 78t124 53t142 19.5z" />
    <glyph glyph-name="uniE007" unicode="&#xe00c;" 
d="M1505 1920q75 0 144.5 -19.5t129.5 -54.5t110 -85t85 -110t54.5 -129.5t19.5 -144.5q0 -108 -41.5 -208t-117.5 -176l-865 -865l-865 865q-76 76 -117.5 176t-41.5 208q0 75 19.5 144.5t54.5 129.5t85 110t110 85t129.5 54.5t144.5 19.5q109 0 211.5 -43t178.5 -122
l-282 -283l448 -448l-294 -293l91 -91l384 384l-448 448q49 49 97 101.5t97 102t102 94t111 78t124 53t142 19.5z" />
    <glyph glyph-name="uniE00A" unicode="&#xe00a;" 
d="M1416 794l248 -794l-640 492l-640 -492l248 794l-632 486h784l240 768l240 -768h784z" />
    <glyph glyph-name="uniE00A" unicode="&#xe735;" 
d="M1416 794l248 -794l-640 492l-640 -492l248 794l-632 486h784l240 768l240 -768h784z" />
    <glyph glyph-name="uniE00A" unicode="&#xe249;" 
d="M1416 794l248 -794l-640 492l-640 -492l248 794l-632 486h784l240 768l240 -768h784z" />
    <glyph glyph-name="uniE00A" unicode="&#xe1cf;" 
d="M1416 794l248 -794l-640 492l-640 -492l248 794l-632 486h784l240 768l240 -768h784z" />
    <glyph glyph-name="uniE00A" unicode="&#xe113;" 
d="M1416 794l248 -794l-640 492l-640 -492l248 794l-632 486h784l240 768l240 -768h784z" />
    <glyph glyph-name="uniE00A" unicode="&#xe0b5;" 
d="M1416 794l248 -794l-640 492l-640 -492l248 794l-632 486h784l240 768l240 -768h784z" />
    <glyph glyph-name="uniE00A" unicode="&#xe0b4;" 
d="M1416 794l248 -794l-640 492l-640 -492l248 794l-632 486h784l240 768l240 -768h784z" />
    <glyph glyph-name="uniE00A" unicode="&#xe082;" 
d="M1416 794l248 -794l-640 492l-640 -492l248 794l-632 486h784l240 768l240 -768h784z" />
    <glyph glyph-name="uniE00B" unicode="&#xe00b;" 
d="M1889 1761q53 -53 88.5 -116t53 -131t17.5 -138.5t-17.5 -138t-53 -130.5t-88.5 -116l-865 -864l-865 864q-53 53 -88.5 116t-53 130.5t-17.5 138t17.5 138.5t53 131t88.5 116q78 77 177 118t208 41t208 -41t177 -118l95 -96l95 96q78 77 177 118t208 41t208 -41
t177 -118z" />
    <glyph glyph-name="uniE00B" unicode="&#xeb52;" 
d="M1889 1761q53 -53 88.5 -116t53 -131t17.5 -138.5t-17.5 -138t-53 -130.5t-88.5 -116l-865 -864l-865 864q-53 53 -88.5 116t-53 130.5t-17.5 138t17.5 138.5t53 131t88.5 116q78 77 177 118t208 41t208 -41t177 -118l95 -96l95 96q78 77 177 118t208 41t208 -41
t177 -118z" />
    <glyph glyph-name="uniE00B" unicode="&#xe0a5;" 
d="M1889 1761q53 -53 88.5 -116t53 -131t17.5 -138.5t-17.5 -138t-53 -130.5t-88.5 -116l-865 -864l-865 864q-53 53 -88.5 116t-53 130.5t-17.5 138t17.5 138.5t53 131t88.5 116q78 77 177 118t208 41t208 -41t177 -118l95 -96l95 96q78 77 177 118t208 41t208 -41
t177 -118z" />
    <glyph glyph-name="uniE00E" unicode="&#xe00e;" 
d="M1443 3l-1022 1021l1022 1021l90 -90l-930 -931l930 -931z" />
    <glyph glyph-name="uniE00E" unicode="&#xe76b;" 
d="M1443 3l-1022 1021l1022 1021l90 -90l-930 -931l930 -931z" />
    <glyph glyph-name="uniE00E" unicode="&#xe0e2;" 
d="M1443 3l-1022 1021l1022 1021l90 -90l-930 -931l930 -931z" />
    <glyph glyph-name="uniE00E" unicode="&#xe09e;" 
d="M1443 3l-1022 1021l1022 1021l90 -90l-930 -931l930 -931z" />
    <glyph glyph-name="uniE00E" unicode="&#xe09a;" 
d="M1443 3l-1022 1021l1022 1021l90 -90l-930 -931l930 -931z" />
    <glyph glyph-name="uniE00E" unicode="&#xe096;" 
d="M1443 3l-1022 1021l1022 1021l90 -90l-930 -931l930 -931z" />
    <glyph glyph-name="uniE00E" unicode="&#xe016;" 
d="M1443 3l-1022 1021l1022 1021l90 -90l-930 -931l930 -931z" />
    <glyph glyph-name="uniE00E" unicode="&#xe012;" 
d="M1443 3l-1022 1021l1022 1021l90 -90l-930 -931l930 -931z" />
    <glyph glyph-name="uniE00F" unicode="&#xe00f;" 
d="M515 93l930 931l-930 931l90 90l1022 -1021l-1022 -1021z" />
    <glyph glyph-name="uniE00F" unicode="&#xe76c;" 
d="M515 93l930 931l-930 931l90 90l1022 -1021l-1022 -1021z" />
    <glyph glyph-name="uniE00F" unicode="&#xe0e3;" 
d="M515 93l930 931l-930 931l90 90l1022 -1021l-1022 -1021z" />
    <glyph glyph-name="uniE00F" unicode="&#xe09f;" 
d="M515 93l930 931l-930 931l90 90l1022 -1021l-1022 -1021z" />
    <glyph glyph-name="uniE00F" unicode="&#xe09b;" 
d="M515 93l930 931l-930 931l90 90l1022 -1021l-1022 -1021z" />
    <glyph glyph-name="uniE00F" unicode="&#xe097;" 
d="M515 93l930 931l-930 931l90 90l1022 -1021l-1022 -1021z" />
    <glyph glyph-name="uniE00F" unicode="&#xe017;" 
d="M515 93l930 931l-930 931l90 90l1022 -1021l-1022 -1021z" />
    <glyph glyph-name="uniE00F" unicode="&#xe013;" 
d="M515 93l930 931l-930 931l90 90l1022 -1021l-1022 -1021z" />
    <glyph glyph-name="uniE010" unicode="&#xe010;" 
d="M1955 515l-931 930l-931 -930l-90 90l1021 1022l1021 -1022z" />
    <glyph glyph-name="uniE010" unicode="&#xe70e;" 
d="M1955 515l-931 930l-931 -930l-90 90l1021 1022l1021 -1022z" />
    <glyph glyph-name="uniE010" unicode="&#xe0e4;" 
d="M1955 515l-931 930l-931 -930l-90 90l1021 1022l1021 -1022z" />
    <glyph glyph-name="uniE010" unicode="&#xe0a0;" 
d="M1955 515l-931 930l-931 -930l-90 90l1021 1022l1021 -1022z" />
    <glyph glyph-name="uniE010" unicode="&#xe09c;" 
d="M1955 515l-931 930l-931 -930l-90 90l1021 1022l1021 -1022z" />
    <glyph glyph-name="uniE010" unicode="&#xe098;" 
d="M1955 515l-931 930l-931 -930l-90 90l1021 1022l1021 -1022z" />
    <glyph glyph-name="uniE010" unicode="&#xe018;" 
d="M1955 515l-931 930l-931 -930l-90 90l1021 1022l1021 -1022z" />
    <glyph glyph-name="uniE010" unicode="&#xe014;" 
d="M1955 515l-931 930l-931 -930l-90 90l1021 1022l1021 -1022z" />
    <glyph glyph-name="uniE011" unicode="&#xe011;" 
d="M1939 1581l90 -90l-1005 -1005l-1005 1005l90 90l915 -915z" />
    <glyph glyph-name="uniE011" unicode="&#xe70d;" 
d="M1939 1581l90 -90l-1005 -1005l-1005 1005l90 90l915 -915z" />
    <glyph glyph-name="uniE011" unicode="&#xe0e5;" 
d="M1939 1581l90 -90l-1005 -1005l-1005 1005l90 90l915 -915z" />
    <glyph glyph-name="uniE011" unicode="&#xe0a1;" 
d="M1939 1581l90 -90l-1005 -1005l-1005 1005l90 90l915 -915z" />
    <glyph glyph-name="uniE011" unicode="&#xe09d;" 
d="M1939 1581l90 -90l-1005 -1005l-1005 1005l90 90l915 -915z" />
    <glyph glyph-name="uniE011" unicode="&#xe099;" 
d="M1939 1581l90 -90l-1005 -1005l-1005 1005l90 90l915 -915z" />
    <glyph glyph-name="uniE011" unicode="&#xe019;" 
d="M1939 1581l90 -90l-1005 -1005l-1005 1005l90 90l915 -915z" />
    <glyph glyph-name="uniE011" unicode="&#xe015;" 
d="M1939 1581l90 -90l-1005 -1005l-1005 1005l90 90l915 -915z" />
    <glyph glyph-name="uniE052" unicode="&#xe052;" 
d="M1024 1280q79 0 149 -30t122.5 -82.5t82.5 -122.5t30 -149q0 -80 -30 -149.5t-82.5 -122t-122.5 -82.5t-149 -30q-80 0 -149.5 30t-122 82.5t-82.5 122t-30 149.5q0 79 30 149t82.5 122.5t122 82.5t149.5 30zM1024 640q53 0 99.5 20t81.5 55t55 81.5t20 99.5t-20 99.5
t-55 81.5t-81.5 55t-99.5 20t-99.5 -20t-81.5 -55t-55 -81.5t-20 -99.5t20 -99.5t55 -81.5t81.5 -55t99.5 -20zM1024 1792q143 0 284 -35.5t266 -104.5t226.5 -170.5t165.5 -233.5q40 -83 61 -171.5t21 -180.5h-128q0 118 -36 221t-99.5 188t-149.5 152t-185.5 113
t-208.5 70t-217 24t-217 -24t-208.5 -70t-185.5 -113t-149.5 -152t-99.5 -188t-36 -221h-128q0 92 21 180.5t61 171.5q64 132 165.5 233.5t226.5 170.5t266 104.5t284 35.5z" />
    <glyph glyph-name="uniE052" unicode="&#xe890;" 
d="M1024 1280q79 0 149 -30t122.5 -82.5t82.5 -122.5t30 -149q0 -80 -30 -149.5t-82.5 -122t-122.5 -82.5t-149 -30q-80 0 -149.5 30t-122 82.5t-82.5 122t-30 149.5q0 79 30 149t82.5 122.5t122 82.5t149.5 30zM1024 640q53 0 99.5 20t81.5 55t55 81.5t20 99.5t-20 99.5
t-55 81.5t-81.5 55t-99.5 20t-99.5 -20t-81.5 -55t-55 -81.5t-20 -99.5t20 -99.5t55 -81.5t81.5 -55t99.5 -20zM1024 1792q143 0 284 -35.5t266 -104.5t226.5 -170.5t165.5 -233.5q40 -83 61 -171.5t21 -180.5h-128q0 118 -36 221t-99.5 188t-149.5 152t-185.5 113
t-208.5 70t-217 24t-217 -24t-208.5 -70t-185.5 -113t-149.5 -152t-99.5 -188t-36 -221h-128q0 92 21 180.5t61 171.5q64 132 165.5 233.5t226.5 170.5t266 104.5t284 35.5z" />
    <glyph glyph-name="uniE052" unicode="&#xe18b;" 
d="M1024 1280q79 0 149 -30t122.5 -82.5t82.5 -122.5t30 -149q0 -80 -30 -149.5t-82.5 -122t-122.5 -82.5t-149 -30q-80 0 -149.5 30t-122 82.5t-82.5 122t-30 149.5q0 79 30 149t82.5 122.5t122 82.5t149.5 30zM1024 640q53 0 99.5 20t81.5 55t55 81.5t20 99.5t-20 99.5
t-55 81.5t-81.5 55t-99.5 20t-99.5 -20t-81.5 -55t-55 -81.5t-20 -99.5t20 -99.5t55 -81.5t81.5 -55t99.5 -20zM1024 1792q143 0 284 -35.5t266 -104.5t226.5 -170.5t165.5 -233.5q40 -83 61 -171.5t21 -180.5h-128q0 118 -36 221t-99.5 188t-149.5 152t-185.5 113
t-208.5 70t-217 24t-217 -24t-208.5 -70t-185.5 -113t-149.5 -152t-99.5 -188t-36 -221h-128q0 92 21 180.5t61 171.5q64 132 165.5 233.5t226.5 170.5t266 104.5t284 35.5z" />
    <glyph glyph-name="uniE07F" unicode="&#xe07f;" 
d="M3 1024q11 132 61.5 254t136.5 223l90 -91q-69 -82 -109 -181t-51 -205h-128zM291 1591q101 86 223 136.5t254 61.5v-128q-106 -11 -205 -51t-181 -109zM201 419q-86 101 -136.5 223t-61.5 254h128q11 -106 51 -205t109 -181zM768 131q-132 11 -254 61.5t-223 136.5
l91 90q82 -69 181 -109t205 -51v-128zM1661 896q-11 -132 -61.5 -254t-136.5 -223l-90 91q69 82 109 181t51 205h128zM1373 329q-101 -86 -223 -136.5t-254 -61.5v128q106 11 205 51t181 109zM1024 1920v-768h192l-256 -256l-256 256h192v768h128zM1792 832v192h-523
l128 128h395v192l256 -256z" />
    <glyph glyph-name="uniE07F" unicode="&#xe776;" 
d="M3 1024q11 132 61.5 254t136.5 223l90 -91q-69 -82 -109 -181t-51 -205h-128zM291 1591q101 86 223 136.5t254 61.5v-128q-106 -11 -205 -51t-181 -109zM201 419q-86 101 -136.5 223t-61.5 254h128q11 -106 51 -205t109 -181zM768 131q-132 11 -254 61.5t-223 136.5
l91 90q82 -69 181 -109t205 -51v-128zM1661 896q-11 -132 -61.5 -254t-136.5 -223l-90 91q69 82 109 181t51 205h128zM1373 329q-101 -86 -223 -136.5t-254 -61.5v128q106 11 205 51t181 109zM1024 1920v-768h192l-256 -256l-256 256h192v768h128zM1792 832v192h-523
l128 128h395v192l256 -256z" />
    <glyph glyph-name="uniE081" unicode="&#xe081;" 
d="M640 293l-621 622l90 90l531 -530l1299 1298l90 -90l-1389 -1390v0z" />
    <glyph glyph-name="uniE081" unicode="&#xe8fb;" 
d="M640 293l-621 622l90 90l531 -530l1299 1298l90 -90l-1389 -1390v0z" />
    <glyph glyph-name="uniE081" unicode="&#xe10b;" 
d="M640 293l-621 622l90 90l531 -530l1299 1298l90 -90l-1389 -1390v0z" />
    <glyph glyph-name="uniE081" unicode="&#xe0e7;" 
d="M640 293l-621 622l90 90l531 -530l1299 1298l90 -90l-1389 -1390v0z" />
    <glyph glyph-name="uniE087" unicode="&#xe087;" 
d="M1783 1664q28 0 53 -11.5t44 -31t29.5 -45.5t10.5 -56v-864q0 -30 -10.5 -56.5t-29.5 -46t-44 -30.5t-53 -11h-1646q-29 0 -53.5 11t-43.5 30.5t-29.5 46t-10.5 56.5v864q0 30 10.5 56t29.5 45.5t43.5 31t53.5 11.5h1646zM1792 1520q0 8 -3.5 12t-5.5 4h-1646
q-2 0 -5.5 -4t-3.5 -12v-864q0 -8 3.5 -12t5.5 -4h1646q2 0 5.5 4t3.5 12v864zM256 1280h256v-128h-256v128zM1408 1280h256v-128h-256v128zM1408 1024h256v-128h-256v128zM256 1024h256v-128h-256v128zM640 1024h640v-128h-640v128zM768 1152h-128v128h128v-128zM1024 1152
h-128v128h128v-128zM1152 1280h128v-128h-128v128z" />
    <glyph glyph-name="uniE087" unicode="&#xe92e;" 
d="M1783 1664q28 0 53 -11.5t44 -31t29.5 -45.5t10.5 -56v-864q0 -30 -10.5 -56.5t-29.5 -46t-44 -30.5t-53 -11h-1646q-29 0 -53.5 11t-43.5 30.5t-29.5 46t-10.5 56.5v864q0 30 10.5 56t29.5 45.5t43.5 31t53.5 11.5h1646zM1792 1520q0 8 -3.5 12t-5.5 4h-1646
q-2 0 -5.5 -4t-3.5 -12v-864q0 -8 3.5 -12t5.5 -4h1646q2 0 5.5 4t3.5 12v864zM256 1280h256v-128h-256v128zM1408 1280h256v-128h-256v128zM1408 1024h256v-128h-256v128zM256 1024h256v-128h-256v128zM640 1024h640v-128h-640v128zM768 1152h-128v128h128v-128zM1024 1152
h-128v128h128v-128zM1152 1280h128v-128h-128v128z" />
    <glyph glyph-name="uniE08F" unicode="&#xe08f;" 
d="M1783 1664q30 0 55 -11.5t43 -31.5t28.5 -46t10.5 -55v-864q0 -29 -10.5 -55t-28.5 -46t-43 -31.5t-55 -11.5h-1646q-30 0 -55 11.5t-43 31.5t-28.5 46t-10.5 55v864q0 29 10.5 55t28.5 46t43 31.5t55 11.5h1646zM1792 1520q0 3 -2 9.5t-7 6.5h-1646q-5 0 -7 -6.5
t-2 -9.5v-864q0 -3 2 -9.5t7 -6.5h1646q5 0 7 6.5t2 9.5v864zM256 1408h128v-128h-128v128zM1536 896h128v-128h-128v128zM256 896h128v-128h-128v128zM512 896h256v-128h-256v128zM1152 896h256v-128h-256v128zM640 1280h-128v128h128v-128zM256 1152h128v-128h-128v128z
M640 1024h-128v128h128v-128zM1280 1152h128v-128h-128v128zM1536 1152h128v-128h-128v128zM1280 1408h128v-128h-128v128zM1536 1408h128v-128h-128v128z" />
    <glyph glyph-name="uniE08F" unicode="&#xe766;" 
d="M1783 1664q30 0 55 -11.5t43 -31.5t28.5 -46t10.5 -55v-864q0 -29 -10.5 -55t-28.5 -46t-43 -31.5t-55 -11.5h-1646q-30 0 -55 11.5t-43 31.5t-28.5 46t-10.5 55v864q0 29 10.5 55t28.5 46t43 31.5t55 11.5h1646zM1792 1520q0 3 -2 9.5t-7 6.5h-1646q-5 0 -7 -6.5
t-2 -9.5v-864q0 -3 2 -9.5t7 -6.5h1646q5 0 7 6.5t2 9.5v864zM256 1408h128v-128h-128v128zM1536 896h128v-128h-128v128zM256 896h128v-128h-128v128zM512 896h256v-128h-256v128zM1152 896h256v-128h-256v128zM640 1280h-128v128h128v-128zM256 1152h128v-128h-128v128z
M640 1024h-128v128h128v-128zM1280 1152h128v-128h-128v128zM1536 1152h128v-128h-128v128zM1280 1408h128v-128h-128v128zM1536 1408h128v-128h-128v128z" />
    <glyph glyph-name="uniE094" unicode="&#xe094;" 
d="M1344 2048q97 0 187 -25t168 -71t142.5 -110.5t110.5 -142.5t71 -168t25 -187t-25 -187t-71 -168t-110.5 -142.5t-142.5 -110.5t-168 -71t-187 -25q-125 0 -239.5 42t-210.5 121l-785 -784q-19 -19 -45 -19t-45 19t-19 45t19 45l784 785q-79 96 -121 210.5t-42 239.5
q0 97 25 187t71 168t110.5 142.5t142.5 110.5t168 71t187 25zM1344 768q119 0 224 45.5t183 123.5t123.5 183t45.5 224t-45.5 224t-123.5 183t-183 123.5t-224 45.5t-224 -45.5t-183 -123.5t-123.5 -183t-45.5 -224t45.5 -224t123.5 -183t183 -123.5t224 -45.5z" />
    <glyph glyph-name="uniE094" unicode="&#xe721;" 
d="M1344 2048q97 0 187 -25t168 -71t142.5 -110.5t110.5 -142.5t71 -168t25 -187t-25 -187t-71 -168t-110.5 -142.5t-142.5 -110.5t-168 -71t-187 -25q-125 0 -239.5 42t-210.5 121l-785 -784q-19 -19 -45 -19t-45 19t-19 45t19 45l784 785q-79 96 -121 210.5t-42 239.5
q0 97 25 187t71 168t110.5 142.5t142.5 110.5t168 71t187 25zM1344 768q119 0 224 45.5t183 123.5t123.5 183t45.5 224t-45.5 224t-123.5 183t-183 123.5t-224 45.5t-224 -45.5t-183 -123.5t-123.5 -183t-45.5 -224t45.5 -224t123.5 -183t183 -123.5t224 -45.5z" />
    <glyph glyph-name="uniE094" unicode="&#xe11a;" 
d="M1344 2048q97 0 187 -25t168 -71t142.5 -110.5t110.5 -142.5t71 -168t25 -187t-25 -187t-71 -168t-110.5 -142.5t-142.5 -110.5t-168 -71t-187 -25q-125 0 -239.5 42t-210.5 121l-785 -784q-19 -19 -45 -19t-45 19t-19 45t19 45l784 785q-79 96 -121 210.5t-42 239.5
q0 97 25 187t71 168t110.5 142.5t142.5 110.5t168 71t187 25zM1344 768q119 0 224 45.5t183 123.5t123.5 183t45.5 224t-45.5 224t-123.5 183t-183 123.5t-224 45.5t-224 -45.5t-183 -123.5t-123.5 -183t-45.5 -224t45.5 -224t123.5 -183t183 -123.5t224 -45.5z" />
    <glyph glyph-name="uniE0A2" unicode="&#xe0a2;" 
d="M2048 2048v-2048h-2048v2048h2048zM1920 1920h-1792v-1792h1792v1792zM768 421l-429 430l90 90l339 -338l851 850l90 -90z" />
    <glyph glyph-name="uniE0A2" unicode="&#xe73a;" 
d="M2048 2048v-2048h-2048v2048h2048zM1920 1920h-1792v-1792h1792v1792zM768 421l-429 430l90 90l339 -338l851 850l90 -90z" />
    <glyph glyph-name="uniE0A6" unicode="&#xe0a6;" 
d="M2048 960h-1798l787 -787l-90 -90l-941 941l941 941l90 -90l-787 -787h1798v-128z" />
    <glyph glyph-name="uniE0A6" unicode="&#xe72b;" 
d="M2048 960h-1798l787 -787l-90 -90l-941 941l941 941l90 -90l-787 -787h1798v-128z" />
    <glyph glyph-name="uniE0A6" unicode="&#xe112;" 
d="M2048 960h-1798l787 -787l-90 -90l-941 941l941 941l90 -90l-787 -787h1798v-128z" />
    <glyph glyph-name="uniE0A6" unicode="&#xe0d5;" 
d="M2048 960h-1798l787 -787l-90 -90l-941 941l941 941l90 -90l-787 -787h1798v-128z" />
    <glyph glyph-name="uniE0A6" unicode="&#xe0c4;" 
d="M2048 960h-1798l787 -787l-90 -90l-941 941l941 941l90 -90l-787 -787h1798v-128z" />
    <glyph glyph-name="uniE0AB" unicode="&#xe0ab;" 
d="M2042 1024l-941 -941l-90 90l787 787h-1798v128h1798l-787 787l90 90z" />
    <glyph glyph-name="uniE0AB" unicode="&#xe72a;" 
d="M2042 1024l-941 -941l-90 90l787 787h-1798v128h1798l-787 787l90 90z" />
    <glyph glyph-name="uniE0AB" unicode="&#xe111;" 
d="M2042 1024l-941 -941l-90 90l787 787h-1798v128h1798l-787 787l90 90z" />
    <glyph glyph-name="uniE0AB" unicode="&#xe0ae;" 
d="M2042 1024l-941 -941l-90 90l787 787h-1798v128h1798l-787 787l90 90z" />
    <glyph glyph-name="uniE0AB" unicode="&#xe0ad;" 
d="M2042 1024l-941 -941l-90 90l787 787h-1798v128h1798l-787 787l90 90z" />
    <glyph glyph-name="uniE0B8" unicode="&#xe0b8;" 
d="M2048 683h-2048v682h2048v-682v0z" />
    <glyph glyph-name="uniE100" unicode="&#xe100;" 
d="M256 256v1536h128v-1536h-128zM704 1024l1088 768v-1536zM1664 503v1042l-738 -521z" />
    <glyph glyph-name="uniE100" unicode="&#xe892;" 
d="M256 256v1536h128v-1536h-128zM704 1024l1088 768v-1536zM1664 503v1042l-738 -521z" />
    <glyph glyph-name="uniE101" unicode="&#xe101;" 
d="M1664 1792h128v-1536h-128v1536zM256 256v1536l1088 -768zM384 1545v-1042l738 521z" />
    <glyph glyph-name="uniE101" unicode="&#xe893;" 
d="M1664 1792h128v-1536h-128v1536zM256 256v1536l1088 -768zM384 1545v-1042l738 521z" />
    <glyph glyph-name="uniE102" unicode="&#xe102;" 
d="M1792 1024l-1280 -896v1792zM640 374l929 650l-929 650v-1300z" />
    <glyph glyph-name="uniE102" unicode="&#xe768;" 
d="M1792 1024l-1280 -896v1792zM640 374l929 650l-929 650v-1300z" />
    <glyph glyph-name="uniE103" unicode="&#xe103;" 
d="M640 1792h128v-1536h-128v1536zM1408 1792v-1536h-128v1536h128z" />
    <glyph glyph-name="uniE103" unicode="&#xe769;" 
d="M640 1792h128v-1536h-128v1536zM1408 1792v-1536h-128v1536h128z" />
    <glyph glyph-name="uniE104" unicode="&#xe104;" 
d="M2048 1713q0 -66 -25 -128t-73 -110l-1317 -1317l-633 -158l158 633l1317 1317q48 48 110 73t128 25q69 0 130 -26.5t106.5 -72t72 -106.5t26.5 -130zM326 620q106 -35 182.5 -111.5t111.5 -182.5l1081 1082l-293 293zM176 176l329 82q-10 46 -32.5 87t-54.5 73t-73 54.5
t-87 32.5zM1792 1499q25 25 48 47t41 46.5t28.5 53t10.5 66.5q0 43 -16.5 80.5t-45 66t-66 45t-80.5 16.5q-38 0 -66.5 -10.5t-53 -28.5t-46.5 -41t-47 -48z" />
    <glyph glyph-name="uniE104" unicode="&#xe70f;" 
d="M2048 1713q0 -66 -25 -128t-73 -110l-1317 -1317l-633 -158l158 633l1317 1317q48 48 110 73t128 25q69 0 130 -26.5t106.5 -72t72 -106.5t26.5 -130zM326 620q106 -35 182.5 -111.5t111.5 -182.5l1081 1082l-293 293zM176 176l329 82q-10 46 -32.5 87t-54.5 73t-73 54.5
t-87 32.5zM1792 1499q25 25 48 47t41 46.5t28.5 53t10.5 66.5q0 43 -16.5 80.5t-45 66t-66 45t-80.5 16.5q-38 0 -66.5 -10.5t-53 -28.5t-46.5 -41t-47 -48z" />
    <glyph glyph-name="uniE105" unicode="&#xe105;" 
d="M1792 1920q27 0 50 -10t40.5 -27.5t27.5 -40.5t10 -50v-1664h-1563l-229 230v1434q0 27 10 50t27.5 40.5t40.5 27.5t50 10h1536zM512 1152h1024v640h-1024v-640zM1280 640h-640v-384h128v256h128v-256h384v384zM1792 1792h-128v-768h-1280v768h-128v-1381l154 -155h102
v512h896v-512h384v1536z" />
    <glyph glyph-name="uniE105" unicode="&#xe74e;" 
d="M1792 1920q27 0 50 -10t40.5 -27.5t27.5 -40.5t10 -50v-1664h-1563l-229 230v1434q0 27 10 50t27.5 40.5t40.5 27.5t50 10h1536zM512 1152h1024v640h-1024v-640zM1280 640h-640v-384h128v256h128v-256h384v384zM1792 1792h-128v-768h-1280v768h-128v-1381l154 -155h102
v512h896v-512h384v1536z" />
    <glyph glyph-name="uniE106" unicode="&#xe106;" 
d="M1115 1024l914 -915l-90 -90l-915 914l-915 -914l-90 90l914 915l-914 915l90 90l915 -914l915 914l90 -90z" />
    <glyph glyph-name="uniE106" unicode="&#xe894;" 
d="M1115 1024l914 -915l-90 -90l-915 914l-915 -914l-90 90l914 915l-914 915l90 90l915 -914l915 914l90 -90z" />
    <glyph glyph-name="uniE107" unicode="&#xe107;" 
d="M1792 1664h-128v-1472q0 -40 -15 -75t-41 -61t-61 -41t-75 -15h-1024q-40 0 -75 15t-61 41t-41 61t-15 75v1472h-128v128h512v128q0 27 10 50t27.5 40.5t40.5 27.5t50 10h384q27 0 50 -10t40.5 -27.5t27.5 -40.5t10 -50v-128h512v-128zM768 1792h384v128h-384v-128z
M1536 1664h-1152v-1472q0 -26 19 -45t45 -19h1024q26 0 45 19t19 45v1472zM768 384h-128v1024h128v-1024zM1024 384h-128v1024h128v-1024zM1280 384h-128v1024h128v-1024z" />
    <glyph glyph-name="uniE107" unicode="&#xe74d;" 
d="M1792 1664h-128v-1472q0 -40 -15 -75t-41 -61t-61 -41t-75 -15h-1024q-40 0 -75 15t-61 41t-41 61t-15 75v1472h-128v128h512v128q0 27 10 50t27.5 40.5t40.5 27.5t50 10h384q27 0 50 -10t40.5 -27.5t27.5 -40.5t10 -50v-128h512v-128zM768 1792h384v128h-384v-128z
M1536 1664h-1152v-1472q0 -26 19 -45t45 -19h1024q26 0 45 19t19 45v1472zM768 384h-128v1024h128v-1024zM1024 384h-128v1024h128v-1024zM1280 384h-128v1024h128v-1024z" />
    <glyph glyph-name="uniE108" unicode="&#xe108;" 
d="M2048 960h-2048v128h2048v-128z" />
    <glyph glyph-name="uniE108" unicode="&#xe738;" 
d="M2048 960h-2048v128h2048v-128z" />
    <glyph glyph-name="uniE109" unicode="&#xe109;" 
d="M2048 1088v-128h-960v-960h-128v960h-960v128h960v960h128v-960h960z" />
    <glyph glyph-name="uniE109" unicode="&#xe710;" 
d="M2048 1088v-128h-960v-960h-128v960h-960v128h960v960h128v-960h960z" />
    <glyph glyph-name="uniE10A" unicode="&#xe10a;" 
d="M1115 1024l690 -691l-90 -90l-691 690l-691 -690l-90 90l690 691l-690 691l90 90l691 -690l691 690l90 -90z" />
    <glyph glyph-name="uniE10A" unicode="&#xe711;" 
d="M1115 1024l690 -691l-90 -90l-691 690l-691 -690l-90 90l690 691l-690 691l90 90l691 -690l691 690l90 -90z" />
    <glyph glyph-name="uniE10C" unicode="&#xe10c;" 
d="M256 1152q27 0 50 -10t40.5 -27.5t27.5 -40.5t10 -50t-10 -50t-27.5 -40.5t-40.5 -27.5t-50 -10t-50 10t-40.5 27.5t-27.5 40.5t-10 50t10 50t27.5 40.5t40.5 27.5t50 10zM1024 1152q27 0 50 -10t40.5 -27.5t27.5 -40.5t10 -50t-10 -50t-27.5 -40.5t-40.5 -27.5t-50 -10
t-50 10t-40.5 27.5t-27.5 40.5t-10 50t10 50t27.5 40.5t40.5 27.5t50 10zM1792 1152q27 0 50 -10t40.5 -27.5t27.5 -40.5t10 -50t-10 -50t-27.5 -40.5t-40.5 -27.5t-50 -10t-50 10t-40.5 27.5t-27.5 40.5t-10 50t10 50t27.5 40.5t40.5 27.5t50 10z" />
    <glyph glyph-name="uniE10C" unicode="&#xe712;" 
d="M256 1152q27 0 50 -10t40.5 -27.5t27.5 -40.5t10 -50t-10 -50t-27.5 -40.5t-40.5 -27.5t-50 -10t-50 10t-40.5 27.5t-27.5 40.5t-10 50t10 50t27.5 40.5t40.5 27.5t50 10zM1024 1152q27 0 50 -10t40.5 -27.5t27.5 -40.5t10 -50t-10 -50t-27.5 -40.5t-40.5 -27.5t-50 -10
t-50 10t-40.5 27.5t-27.5 40.5t-10 50t10 50t27.5 40.5t40.5 27.5t50 10zM1792 1152q27 0 50 -10t40.5 -27.5t27.5 -40.5t10 -50t-10 -50t-27.5 -40.5t-40.5 -27.5t-50 -10t-50 10t-40.5 27.5t-27.5 40.5t-10 50t10 50t27.5 40.5t40.5 27.5t50 10z" />
    <glyph glyph-name="uniE10D" unicode="&#xe10d;" 
d="M1152 1536h421q-71 72 -135.5 140t-134.5 121.5t-152.5 86t-190.5 32.5q-117 0 -221 -45.5t-182 -123.5t-123.5 -182t-45.5 -221q0 -112 43 -215.5t122 -182.5l836 -837l-90 -90l-837 836q-97 97 -149.5 224.5t-52.5 264.5q0 96 25 185t71 167t110 142t142 110t167 71
t185 25q84 0 153.5 -15.5t129 -43t112 -66t103 -85t100.5 -99t106 -108.5v421h128v-640h-640v128z" />
    <glyph glyph-name="uniE10D" unicode="&#xe7a6;" 
d="M1152 1536h421q-71 72 -135.5 140t-134.5 121.5t-152.5 86t-190.5 32.5q-117 0 -221 -45.5t-182 -123.5t-123.5 -182t-45.5 -221q0 -112 43 -215.5t122 -182.5l836 -837l-90 -90l-837 836q-97 97 -149.5 224.5t-52.5 264.5q0 96 25 185t71 167t110 142t142 110t167 71
t185 25q84 0 153.5 -15.5t129 -43t112 -66t103 -85t100.5 -99t106 -108.5v421h128v-640h-640v128z" />
    <glyph glyph-name="uniE10E" unicode="&#xe10e;" 
d="M1088 2044q96 0 185 -25t167 -71t142 -110t110 -142t71 -167t25 -185q0 -137 -52.5 -264.5t-149.5 -224.5l-837 -836l-90 90l836 837q79 79 122 182.5t43 215.5q0 117 -45.5 221t-123.5 182t-182 123.5t-221 45.5q-108 0 -190.5 -32.5t-152.5 -86t-134.5 -121.5
t-135.5 -140h421v-128h-640v640h128v-421q55 56 105.5 108.5t101 99t103 85t112 66t129 43t153.5 15.5z" />
    <glyph glyph-name="uniE10E" unicode="&#xe7a7;" 
d="M1088 2044q96 0 185 -25t167 -71t142 -110t110 -142t71 -167t25 -185q0 -137 -52.5 -264.5t-149.5 -224.5l-837 -836l-90 90l836 837q79 79 122 182.5t43 215.5q0 117 -45.5 221t-123.5 182t-182 123.5t-221 45.5q-108 0 -190.5 -32.5t-152.5 -86t-134.5 -121.5
t-135.5 -140h421v-128h-640v640h128v-421q55 56 105.5 108.5t101 99t103 85t112 66t129 43t153.5 15.5z" />
    <glyph glyph-name="uniE10F" unicode="&#xe10f;" 
d="M1024 1883l941 -942l-90 -90l-83 82v-805h-640v640h-256v-640h-640v805l-83 -82l-90 90zM1664 256v805l-640 640l-640 -640v-805h384v640h512v-640h384z" />
    <glyph glyph-name="uniE10F" unicode="&#xe80f;" 
d="M1024 1883l941 -942l-90 -90l-83 82v-805h-640v640h-256v-640h-640v805l-83 -82l-90 90zM1664 256v805l-640 640l-640 -640v-805h384v640h512v-640h384z" />
    <glyph glyph-name="uniE110" unicode="&#xe110;" 
d="M1875 1011l-787 787v-1798h-128v1798l-787 -787l-90 90l941 941l941 -941z" />
    <glyph glyph-name="uniE110" unicode="&#xe74a;" 
d="M1875 1011l-787 787v-1798h-128v1798l-787 -787l-90 90l941 941l941 -941z" />
    <glyph glyph-name="uniE114" unicode="&#xe114;" 
d="M2048 1792v-1536h-2048v1536h549l128 128h694l128 -128h549zM1920 1664h-475l-128 128h-586l-128 -128h-475v-1280h1792v1280zM1024 1536q106 0 199.5 -40t163 -109.5t109.5 -163t40 -199.5t-40 -199.5t-109.5 -163t-163 -109.5t-199.5 -40t-199.5 40t-163 109.5
t-109.5 163t-40 199.5t40 199.5t109.5 163t163 109.5t199.5 40zM1024 640q79 0 149 30.5t122 82.5t82.5 122t30.5 149t-30.5 149t-82.5 122t-122 82.5t-149 30.5t-149 -30.5t-122 -82.5t-82.5 -122t-30.5 -149t30.5 -149t82.5 -122t122 -82.5t149 -30.5zM320 1536
q26 0 45 -19t19 -45t-19 -45t-45 -19t-45 19t-19 45t19 45t45 19z" />
    <glyph glyph-name="uniE114" unicode="&#xe722;" 
d="M2048 1792v-1536h-2048v1536h549l128 128h694l128 -128h549zM1920 1664h-475l-128 128h-586l-128 -128h-475v-1280h1792v1280zM1024 1536q106 0 199.5 -40t163 -109.5t109.5 -163t40 -199.5t-40 -199.5t-109.5 -163t-163 -109.5t-199.5 -40t-199.5 40t-163 109.5
t-109.5 163t-40 199.5t40 199.5t109.5 163t163 109.5t199.5 40zM1024 640q79 0 149 30.5t122 82.5t82.5 122t30.5 149t-30.5 149t-82.5 122t-122 82.5t-149 30.5t-149 -30.5t-122 -82.5t-82.5 -122t-30.5 -149t30.5 -149t82.5 -122t122 -82.5t149 -30.5zM320 1536
q26 0 45 -19t19 -45t-19 -45t-45 -19t-45 19t-19 45t19 45t45 19z" />
    <glyph glyph-name="uniE115" unicode="&#xe115;" 
d="M1783 1060q0 -9 0.5 -18t0.5 -18t-0.5 -18t-0.5 -18l259 -161l-159 -383l-297 68q-24 -26 -50 -50l68 -297l-383 -159l-161 259q-9 0 -18 -0.5t-18 -0.5t-18 0.5t-18 0.5l-161 -259l-383 159l68 297q-26 24 -50 50l-297 -68l-159 383l259 161q0 9 -0.5 18t-0.5 18t0.5 18
t0.5 18l-259 161l159 383l297 -68q24 26 50 50l-68 297l383 159l161 -259q9 0 18 0.5t18 0.5t18 -0.5t18 -0.5l161 259l383 -159l-68 -297q26 -24 50 -50l297 68l159 -383zM1666 930q2 24 4 47.5t2 47.5q0 23 -2 47t-4 47l236 147l-86 208l-271 -63q-31 38 -63.5 70
t-70.5 64l63 271l-208 86l-148 -236q-23 2 -47 4t-47 2q-24 0 -47.5 -2t-47.5 -4l-147 236l-208 -86l63 -271q-38 -31 -70 -63.5t-64 -70.5l-271 63l-86 -208l236 -148q-2 -24 -4 -47.5t-2 -47.5q0 -23 2 -47t4 -47l-236 -147l86 -208l271 63q31 -38 63.5 -70t70.5 -64
l-63 -271l208 -86l148 236q23 -2 47 -4t47 -2q24 0 47.5 2t47.5 4l147 -236l208 86l-63 271q38 31 70 63.5t64 70.5l271 -63l86 208zM1024 1400q78 0 146.5 -29.5t119.5 -80.5t80.5 -119.5t29.5 -146.5t-29.5 -146.5t-80.5 -119.5t-119.5 -80.5t-146.5 -29.5t-146.5 29.5
t-119.5 80.5t-80.5 119.5t-29.5 146.5t29.5 146.5t80.5 119.5t119.5 80.5t146.5 29.5zM1024 760q55 0 103 20.5t84 56.5t56.5 84t20.5 103t-20.5 103t-56.5 84t-84 56.5t-103 20.5t-103 -20.5t-84 -56.5t-56.5 -84t-20.5 -103t20.5 -103t56.5 -84t84 -56.5t103 -20.5z" />
    <glyph glyph-name="uniE115" unicode="&#xe713;" 
d="M1783 1060q0 -9 0.5 -18t0.5 -18t-0.5 -18t-0.5 -18l259 -161l-159 -383l-297 68q-24 -26 -50 -50l68 -297l-383 -159l-161 259q-9 0 -18 -0.5t-18 -0.5t-18 0.5t-18 0.5l-161 -259l-383 159l68 297q-26 24 -50 50l-297 -68l-159 383l259 161q0 9 -0.5 18t-0.5 18t0.5 18
t0.5 18l-259 161l159 383l297 -68q24 26 50 50l-68 297l383 159l161 -259q9 0 18 0.5t18 0.5t18 -0.5t18 -0.5l161 259l383 -159l-68 -297q26 -24 50 -50l297 68l159 -383zM1666 930q2 24 4 47.5t2 47.5q0 23 -2 47t-4 47l236 147l-86 208l-271 -63q-31 38 -63.5 70
t-70.5 64l63 271l-208 86l-148 -236q-23 2 -47 4t-47 2q-24 0 -47.5 -2t-47.5 -4l-147 236l-208 -86l63 -271q-38 -31 -70 -63.5t-64 -70.5l-271 63l-86 -208l236 -148q-2 -24 -4 -47.5t-2 -47.5q0 -23 2 -47t4 -47l-236 -147l86 -208l271 63q31 -38 63.5 -70t70.5 -64
l-63 -271l208 -86l148 236q23 -2 47 -4t47 -2q24 0 47.5 2t47.5 4l147 -236l208 86l-63 271q38 31 70 63.5t64 70.5l271 -63l86 208zM1024 1400q78 0 146.5 -29.5t119.5 -80.5t80.5 -119.5t29.5 -146.5t-29.5 -146.5t-80.5 -119.5t-119.5 -80.5t-146.5 -29.5t-146.5 29.5
t-119.5 80.5t-80.5 119.5t-29.5 146.5t29.5 146.5t80.5 119.5t119.5 80.5t146.5 29.5zM1024 760q55 0 103 20.5t84 56.5t56.5 84t20.5 103t-20.5 103t-56.5 84t-84 56.5t-103 20.5t-103 -20.5t-84 -56.5t-56.5 -84t-20.5 -103t20.5 -103t56.5 -84t84 -56.5t103 -20.5z" />
    <glyph glyph-name="uniE116" unicode="&#xe116;" 
d="M2048 504l-512 256v-248h-1536v1024h1536v-248l512 256v-1040zM1408 1408h-1280v-768h1280v768zM1920 1337l-384 -193v-240l384 -193v626z" />
    <glyph glyph-name="uniE116" unicode="&#xe714;" 
d="M2048 504l-512 256v-248h-1536v1024h1536v-248l512 256v-1040zM1408 1408h-1280v-768h1280v768zM1920 1337l-384 -193v-240l384 -193v626z" />
    <glyph glyph-name="uniE116" unicode="&#xe20a;" 
d="M2048 504l-512 256v-248h-1536v1024h1536v-248l512 256v-1040zM1408 1408h-1280v-768h1280v768zM1920 1337l-384 -193v-240l384 -193v626z" />
    <glyph glyph-name="uniE117" unicode="&#xe117;" 
d="M1024 128q154 0 295.5 47.5t258 134t203 208t131.5 269.5l122 -38q-50 -167 -149 -304.5t-232.5 -236.5t-294 -153.5t-334.5 -54.5q-137 0 -267 34t-245.5 98.5t-213.5 157t-170 209.5v-243h-128v512h512v-128h-316q59 -117 146.5 -211.5t195.5 -161t231.5 -103
t254.5 -36.5zM2048 1792v-512h-512v128h316q-59 117 -146.5 211.5t-195.5 161t-231.5 103t-254.5 36.5q-154 0 -295.5 -47.5t-258 -134t-203 -208t-131.5 -269.5l-122 38q50 166 149 304t232.5 237t294 153.5t334.5 54.5q137 0 267 -34t245.5 -98.5t213.5 -157t170 -209.5
v243h128z" />
    <glyph glyph-name="uniE117" unicode="&#xe895;" 
d="M1024 128q154 0 295.5 47.5t258 134t203 208t131.5 269.5l122 -38q-50 -167 -149 -304.5t-232.5 -236.5t-294 -153.5t-334.5 -54.5q-137 0 -267 34t-245.5 98.5t-213.5 157t-170 209.5v-243h-128v512h512v-128h-316q59 -117 146.5 -211.5t195.5 -161t231.5 -103
t254.5 -36.5zM2048 1792v-512h-512v128h316q-59 117 -146.5 211.5t-195.5 161t-231.5 103t-254.5 36.5q-154 0 -295.5 -47.5t-258 -134t-203 -208t-131.5 -269.5l-122 38q50 166 149 304t232.5 237t294 153.5t334.5 54.5q137 0 267 -34t245.5 -98.5t213.5 -157t170 -209.5
v243h128z" />
    <glyph glyph-name="uniE118" unicode="&#xe118;" 
d="M384 0v128h1152v-128h-1152zM1581 979l-621 -626l-621 626l90 90l467 -470v1449h128v-1449l467 470z" />
    <glyph glyph-name="uniE118" unicode="&#xe896;" 
d="M384 0v128h1152v-128h-1152zM1581 979l-621 -626l-621 626l90 90l467 -470v1449h128v-1449l467 470z" />
    <glyph glyph-name="uniE119" unicode="&#xe119;" 
d="M2048 1664v-1280h-2048v1280h2048zM143 1536l881 -441l881 441h-1762zM1920 512v888l-896 -447l-896 447v-888h1792z" />
    <glyph glyph-name="uniE119" unicode="&#xe715;" 
d="M2048 1664v-1280h-2048v1280h2048zM143 1536l881 -441l881 441h-1762zM1920 512v888l-896 -447l-896 447v-888h1792z" />
    <glyph glyph-name="uniE11B" unicode="&#xe11b;" 
d="M896 128h128v-128h-128v128zM960 2048q79 0 152.5 -20.5t137.5 -58t117 -90.5t90.5 -117t58 -137.5t20.5 -152.5q0 -84 -22 -152t-58 -124.5t-82 -104.5t-94 -93t-94 -89.5t-82 -94.5t-58 -108t-22 -130v-192h-128v192q0 84 22 152t58 124.5t82 104t94 92.5t94 90t82 95
t58 108t22 130q0 93 -35.5 174.5t-96 142t-142 96t-174.5 35.5t-174.5 -35.5t-142 -96t-96 -142t-35.5 -174.5h-128q0 79 20.5 152.5t58 137.5t90.5 117t117 90.5t137.5 58t152.5 20.5z" />
    <glyph glyph-name="uniE11B" unicode="&#xe897;" 
d="M896 128h128v-128h-128v128zM960 2048q79 0 152.5 -20.5t137.5 -58t117 -90.5t90.5 -117t58 -137.5t20.5 -152.5q0 -84 -22 -152t-58 -124.5t-82 -104.5t-94 -93t-94 -89.5t-82 -94.5t-58 -108t-22 -130v-192h-128v192q0 84 22 152t58 124.5t82 104t94 92.5t94 90t82 95
t58 108t22 130q0 93 -35.5 174.5t-96 142t-142 96t-174.5 35.5t-174.5 -35.5t-142 -96t-96 -142t-35.5 -174.5h-128q0 79 20.5 152.5t58 137.5t90.5 117t117 90.5t137.5 58t152.5 20.5z" />
    <glyph glyph-name="uniE11C" unicode="&#xe11c;" 
d="M1536 2048v-128h-1152v128h1152zM1581 1069l-90 -90l-467 470v-1449h-128v1449l-467 -470l-90 90l621 626z" />
    <glyph glyph-name="uniE11C" unicode="&#xe898;" 
d="M1536 2048v-128h-1152v128h1152zM1581 1069l-90 -90l-467 470v-1449h-128v1449l-467 -470l-90 90l621 626z" />
    <glyph glyph-name="uniE11C" unicode="&#xe183;" 
d="M1536 2048v-128h-1152v128h1152zM1581 1069l-90 -90l-467 470v-1449h-128v1449l-467 -470l-90 90l621 626z" />
    <glyph glyph-name="uniE11D" unicode="&#xe11d;" 
d="M1024 2048q141 0 272 -36.5t245 -103t207.5 -160t160 -207.5t103 -245t36.5 -272t-36.5 -272t-103 -245t-160 -207.5t-207.5 -160t-245 -103t-272 -36.5t-272 36.5t-245 103t-207.5 160t-160 207.5t-103 244.5t-36.5 272.5q0 141 36.5 272t103 245t160 207.5t207.5 160
t244.5 103t272.5 36.5zM1024 128q123 0 237.5 32t214 90.5t181.5 140.5t140.5 181.5t90.5 214t32 237.5t-32 237.5t-90.5 214t-140.5 181.5t-181.5 140.5t-214 90.5t-237.5 32t-237.5 -32t-214 -90.5t-181.5 -140.5t-140.5 -181.5t-90.5 -214t-32 -237.5t32 -237.5
t90.5 -214t140.5 -181.5t181.5 -140.5t214 -90.5t237.5 -32zM640 1536q27 0 50 -10t40.5 -27.5t27.5 -40.5t10 -50h-256q0 27 10 50t27.5 40.5t40.5 27.5t50 10zM1408 1536q27 0 50 -10t40.5 -27.5t27.5 -40.5t10 -50h-256q0 27 10 50t27.5 40.5t40.5 27.5t50 10zM1472 1280
q40 0 75 -15t61 -41t41 -61t15 -75v-64q0 -133 -50 -249.5t-137 -203.5t-203.5 -137t-249.5 -50t-249.5 50t-203.5 137t-137 203.5t-50 249.5q0 48 8 94t29 82t58.5 58t96.5 22q74 0 129 -20t104.5 -44t100 -44t114.5 -20t114.5 20t100 44t104.5 44t129 20zM1536 1088
q0 26 -19 45t-45 19q-43 0 -79 -9.5t-69.5 -23.5t-66 -31t-68 -31t-76 -23.5t-89.5 -9.5t-89.5 9.5t-76 23.5t-68 31t-66 31t-69.5 23.5t-79 9.5q-26 0 -45 -19t-19 -45v-64q0 -106 40.5 -199t110 -162.5t162.5 -110t199 -40.5t199 40.5t162.5 110t110 162.5t40.5 199v64z
" />
    <glyph glyph-name="uniE11D" unicode="&#xe899;" 
d="M1024 2048q141 0 272 -36.5t245 -103t207.5 -160t160 -207.5t103 -245t36.5 -272t-36.5 -272t-103 -245t-160 -207.5t-207.5 -160t-245 -103t-272 -36.5t-272 36.5t-245 103t-207.5 160t-160 207.5t-103 244.5t-36.5 272.5q0 141 36.5 272t103 245t160 207.5t207.5 160
t244.5 103t272.5 36.5zM1024 128q123 0 237.5 32t214 90.5t181.5 140.5t140.5 181.5t90.5 214t32 237.5t-32 237.5t-90.5 214t-140.5 181.5t-181.5 140.5t-214 90.5t-237.5 32t-237.5 -32t-214 -90.5t-181.5 -140.5t-140.5 -181.5t-90.5 -214t-32 -237.5t32 -237.5
t90.5 -214t140.5 -181.5t181.5 -140.5t214 -90.5t237.5 -32zM640 1536q27 0 50 -10t40.5 -27.5t27.5 -40.5t10 -50h-256q0 27 10 50t27.5 40.5t40.5 27.5t50 10zM1408 1536q27 0 50 -10t40.5 -27.5t27.5 -40.5t10 -50h-256q0 27 10 50t27.5 40.5t40.5 27.5t50 10zM1472 1280
q40 0 75 -15t61 -41t41 -61t15 -75v-64q0 -133 -50 -249.5t-137 -203.5t-203.5 -137t-249.5 -50t-249.5 50t-203.5 137t-137 203.5t-50 249.5q0 48 8 94t29 82t58.5 58t96.5 22q74 0 129 -20t104.5 -44t100 -44t114.5 -20t114.5 20t100 44t104.5 44t129 20zM1536 1088
q0 26 -19 45t-45 19q-43 0 -79 -9.5t-69.5 -23.5t-66 -31t-68 -31t-76 -23.5t-89.5 -9.5t-89.5 9.5t-76 23.5t-68 31t-66 31t-69.5 23.5t-79 9.5q-26 0 -45 -19t-19 -45v-64q0 -106 40.5 -199t110 -162.5t162.5 -110t199 -40.5t199 40.5t162.5 110t110 162.5t40.5 199v64z
" />
    <glyph glyph-name="uniE11E" unicode="&#xe11e;" 
d="M0 1243l421 421h475v-1280h-896v859zM384 1445l-165 -165h165v165zM768 512v1024h-256v-384h-384v-640h640zM1627 1664l421 -421v-859h-896v1280h475zM1664 1445v-165h165zM1280 512h640v640h-384v384h-256v-1024z" />
    <glyph glyph-name="uniE11E" unicode="&#xe89a;" 
d="M0 1243l421 421h475v-1280h-896v859zM384 1445l-165 -165h165v165zM768 512v1024h-256v-384h-384v-640h640zM1627 1664l421 -421v-859h-896v1280h475zM1664 1445v-165h165zM1280 512h640v640h-384v384h-256v-1024z" />
    <glyph glyph-name="uniE11F" unicode="&#xe11f;" 
d="M0 1920h2048v-1152h-128v1024h-1792v-1152h256v-293l293 293h475v-128h-421l-475 -475v475h-256v1408zM1661 803l-162 -163h549v-128h-549l162 -163l-90 -90l-317 317l317 317z" />
    <glyph glyph-name="uniE11F" unicode="&#xe89b;" 
d="M0 1920h2048v-1152h-128v1024h-1792v-1152h256v-293l293 293h475v-128h-421l-475 -475v475h-256v1408zM1661 803l-162 -163h549v-128h-549l162 -163l-90 -90l-317 317l317 317z" />
    <glyph glyph-name="uniE120" unicode="&#xe120;" 
d="M0 1664h2048v-896v-128l-128 128v697l-896 -449l-896 449v-953h1024v-128h-1152v1280zM1024 1160l753 376h-1506zM1635 675l90 90l317 -317l-317 -317l-90 90l163 163h-518v128h518z" />
    <glyph glyph-name="uniE120" unicode="&#xe89c;" 
d="M0 1664h2048v-896v-128l-128 128v697l-896 -449l-896 449v-953h1024v-128h-1152v1280zM1024 1160l753 376h-1506zM1635 675l90 90l317 -317l-317 -317l-90 90l163 163h-518v128h518z" />
    <glyph glyph-name="uniE121" unicode="&#xe121;" 
d="M1024 0q-124 0 -238.5 32t-214 90.5t-181 140t-140 181t-90.5 214t-32 238.5t32 238.5t90.5 214t140 181t181 140t214 90.5t238.5 32t238.5 -32t214 -90.5t181 -140t140 -181t90.5 -214t32 -238.5t-32 -238.5t-90.5 -214t-140 -181t-181 -140t-214 -90.5t-238.5 -32z
M1024 1664q-159 0 -298.5 -60.5t-244 -165t-165 -244t-60.5 -298.5t60.5 -298.5t165 -244t244 -165t298.5 -60.5t298.5 60.5t244 165t165 244t60.5 298.5t-60.5 298.5t-165 244t-244 165t-298.5 60.5zM1024 896v512h-128v-640h512v128h-384z" />
    <glyph glyph-name="uniE122" unicode="&#xe122;" 
d="M11 411l226 677l-226 677l2031 -677zM350 1152h1096l-1233 411zM213 613l1233 411h-1096z" />
    <glyph glyph-name="uniE122" unicode="&#xe724;" 
d="M11 411l226 677l-226 677l2031 -677zM350 1152h1096l-1233 411zM213 613l1233 411h-1096z" />
    <glyph glyph-name="uniE123" unicode="&#xe123;" 
d="M2048 512v-129h-385v-383h-127v383h-1153v1153h-383v127h383v385h129v-385h1061l365 366l91 -90l-366 -366v-1061h385zM512 1536v-933l933 933h-933zM1536 512v933l-933 -933h933z" />
    <glyph glyph-name="uniE123" unicode="&#xe7a8;" 
d="M2048 512v-129h-385v-383h-127v383h-1153v1153h-383v127h383v385h129v-385h1061l365 366l91 -90l-366 -366v-1061h385zM512 1536v-933l933 933h-933zM1536 512v933l-933 -933h933z" />
    <glyph glyph-name="uniE124" unicode="&#xe124;" 
d="M1024 1536q53 0 99.5 -20t81.5 -55t55 -81.5t20 -99.5t-20 -99.5t-55 -81.5t-81.5 -55t-99.5 -20t-99.5 20t-81.5 55t-55 81.5t-20 99.5t20 99.5t55 81.5t81.5 55t99.5 20zM1024 1152q27 0 50 10t40.5 27.5t27.5 40.5t10 50t-10 50t-27.5 40.5t-40.5 27.5t-50 10t-50 -10
t-40.5 -27.5t-27.5 -40.5t-10 -50t10 -50t27.5 -40.5t40.5 -27.5t50 -10zM1664 1264q85 -22 155.5 -69.5t121.5 -113t79 -145.5t28 -168q0 -106 -40 -199.5t-109.5 -163t-163 -109.5t-199.5 -40v128q79 0 149 30t122.5 82.5t82.5 122t30 149.5q0 61 -18.5 117.5t-52 104
t-81 84t-104.5 56.5v-362h-1280v363q-57 -20 -104.5 -56.5t-81 -84t-52 -104t-18.5 -117.5q0 -80 30 -149.5t82.5 -122t122 -82.5t149.5 -30h293l-162 163l90 90l317 -317l-317 -317l-90 90l162 163h-293q-106 0 -199.5 40t-163 109.5t-109.5 163t-40 199.5q0 87 28 167.5
t79 146.5t121.5 113.5t155.5 68.5v527h293l128 128h438l128 -128h293v-528zM1536 1664h-219l-128 128h-330l-128 -128h-219v-768h1024v768z" />
    <glyph glyph-name="uniE124" unicode="&#xe89e;" 
d="M1024 1536q53 0 99.5 -20t81.5 -55t55 -81.5t20 -99.5t-20 -99.5t-55 -81.5t-81.5 -55t-99.5 -20t-99.5 20t-81.5 55t-55 81.5t-20 99.5t20 99.5t55 81.5t81.5 55t99.5 20zM1024 1152q27 0 50 10t40.5 27.5t27.5 40.5t10 50t-10 50t-27.5 40.5t-40.5 27.5t-50 10t-50 -10
t-40.5 -27.5t-27.5 -40.5t-10 -50t10 -50t27.5 -40.5t40.5 -27.5t50 -10zM1664 1264q85 -22 155.5 -69.5t121.5 -113t79 -145.5t28 -168q0 -106 -40 -199.5t-109.5 -163t-163 -109.5t-199.5 -40v128q79 0 149 30t122.5 82.5t82.5 122t30 149.5q0 61 -18.5 117.5t-52 104
t-81 84t-104.5 56.5v-362h-1280v363q-57 -20 -104.5 -56.5t-81 -84t-52 -104t-18.5 -117.5q0 -80 30 -149.5t82.5 -122t122 -82.5t149.5 -30h293l-162 163l90 90l317 -317l-317 -317l-90 90l162 163h-293q-106 0 -199.5 40t-163 109.5t-109.5 163t-40 199.5q0 87 28 167.5
t79 146.5t121.5 113.5t155.5 68.5v527h293l128 128h438l128 -128h293v-528zM1536 1664h-219l-128 128h-330l-128 -128h-219v-768h1024v768z" />
    <glyph glyph-name="uniE125" unicode="&#xe125;" 
d="M1636 1355q65 -33 117.5 -81.5t89.5 -108t57 -128t20 -141.5h-128q0 79 -30.5 149t-82.5 122t-122 82.5t-149 30.5t-149 -30.5t-122 -82.5t-82.5 -122t-30.5 -149q0 -91 -41.5 -173t-114.5 -136q65 -33 117.5 -81.5t89.5 -108t57 -128t20 -141.5h-128q0 79 -30.5 149
t-82.5 122t-122 82.5t-149 30.5t-149 -30.5t-122 -82.5t-82.5 -122t-30.5 -149h-128q0 73 20 141.5t57 128t89.5 108t117.5 81.5q-73 54 -114.5 136t-41.5 173q0 79 30.5 149t82.5 122t122 82.5t149 30.5q91 0 173 -41.5t136 -114.5q38 75 97 134t134 97q-73 54 -114.5 136
t-41.5 173q0 79 30.5 149t82.5 122t122 82.5t149 30.5t149 -30.5t122 -82.5t82.5 -122t30.5 -149q0 -91 -41.5 -173t-114.5 -136zM640 640q52 0 99 20.5t81.5 55t55 81t20.5 99.5q0 52 -20.5 99t-55 81.5t-81.5 55t-99 20.5q-53 0 -99.5 -20.5t-81 -55t-55 -81.5t-20.5 -99
q0 -53 20.5 -99.5t55 -81t81 -55t99.5 -20.5zM1152 1664q0 -53 20.5 -99.5t55 -81t81 -55t99.5 -20.5q52 0 99 20.5t81.5 55t55 81t20.5 99.5q0 52 -20.5 99t-55 81.5t-81.5 55t-99 20.5q-53 0 -99.5 -20.5t-81 -55t-55 -81.5t-20.5 -99z" />
    <glyph glyph-name="uniE125" unicode="&#xe716;" 
d="M1636 1355q65 -33 117.5 -81.5t89.5 -108t57 -128t20 -141.5h-128q0 79 -30.5 149t-82.5 122t-122 82.5t-149 30.5t-149 -30.5t-122 -82.5t-82.5 -122t-30.5 -149q0 -91 -41.5 -173t-114.5 -136q65 -33 117.5 -81.5t89.5 -108t57 -128t20 -141.5h-128q0 79 -30.5 149
t-82.5 122t-122 82.5t-149 30.5t-149 -30.5t-122 -82.5t-82.5 -122t-30.5 -149h-128q0 73 20 141.5t57 128t89.5 108t117.5 81.5q-73 54 -114.5 136t-41.5 173q0 79 30.5 149t82.5 122t122 82.5t149 30.5q91 0 173 -41.5t136 -114.5q38 75 97 134t134 97q-73 54 -114.5 136
t-41.5 173q0 79 30.5 149t82.5 122t122 82.5t149 30.5t149 -30.5t122 -82.5t82.5 -122t30.5 -149q0 -91 -41.5 -173t-114.5 -136zM640 640q52 0 99 20.5t81.5 55t55 81t20.5 99.5q0 52 -20.5 99t-55 81.5t-81.5 55t-99 20.5q-53 0 -99.5 -20.5t-81 -55t-55 -81.5t-20.5 -99
q0 -53 20.5 -99.5t55 -81t81 -55t99.5 -20.5zM1152 1664q0 -53 20.5 -99.5t55 -81t81 -55t99.5 -20.5q52 0 99 20.5t81.5 55t55 81t20.5 99.5q0 52 -20.5 99t-55 81.5t-81.5 55t-99 20.5q-53 0 -99.5 -20.5t-81 -55t-55 -81.5t-20.5 -99z" />
    <glyph glyph-name="uniE126" unicode="&#xe126;" 
d="M0 1664h2048v-1152h-2048v1152zM128 1536v-896h1280v896h-1280zM1920 640v896h-384v-896h384zM989 1405l317 -317l-317 -317l-90 90l162 163h-421v128h421l-162 163z" />
    <glyph glyph-name="uniE126" unicode="&#xe89f;" 
d="M0 1664h2048v-1152h-2048v1152zM128 1536v-896h1280v896h-1280zM1920 640v896h-384v-896h384zM989 1405l317 -317l-317 -317l-90 90l162 163h-421v128h421l-162 163z" />
    <glyph glyph-name="uniE127" unicode="&#xe127;" 
d="M0 1664h2048v-1152h-2048v1152zM128 1536v-896h1280v896h-1280zM1920 640v896h-384v-896h384zM1280 1152v-128h-421l162 -163l-90 -90l-317 317l317 317l90 -90l-162 -163h421z" />
    <glyph glyph-name="uniE127" unicode="&#xe8a0;" 
d="M0 1664h2048v-1152h-2048v1152zM128 1536v-896h1280v896h-1280zM1920 640v896h-384v-896h384zM1280 1152v-128h-421l162 -163l-90 -90l-317 317l317 317l90 -90l-162 -163h421z" />
    <glyph glyph-name="uniE128" unicode="&#xe128;" 
d="M496 1165q13 0 29 -4.5t32.5 -10.5t32 -13t28.5 -12q-8 -1 -16.5 -2t-16.5 -1q-17 0 -31 5.5t-26.5 12.5t-24 12.5t-21.5 5.5t-18 -4t-16 -9q0 4 -7 4q7 7 26 11.5t29 4.5zM631 1120q41 0 75 -14q-14 -5 -28 -8.5t-29 -3.5q-20 0 -36 4q5 8 10 10.5t8 11.5zM1024 2048
q141 0 271.5 -37t244 -103.5t207.5 -160.5t160.5 -207.5t103.5 -244t37 -271.5t-37 -271.5t-103.5 -244t-160.5 -207.5t-207.5 -160.5t-244 -103.5t-271.5 -37t-271.5 37t-244 103.5t-207.5 160.5t-160.5 207.5t-103.5 244t-37 271.5t37 271.5t103.5 244t160.5 207.5
t207.5 160.5t244 103.5t271.5 37zM1786 1493q-14 22 -28 42.5t-29 40.5q-2 -9 -5.5 -13t-3.5 -18q0 -9 7.5 -17.5t18 -15.5t21.5 -12t19 -7zM1717 1591q0 -8 -3 -11h6q4 0 6 -1zM1024 128q114 0 223 29t206.5 82.5t180 130t144.5 171.5q-13 30 -25 61t-12 64q0 36 3.5 58.5
t6.5 38.5t4.5 29.5t-3.5 30.5t-17.5 41t-36.5 62q1 7 3.5 19t3.5 25t0.5 24.5t-4.5 18.5q-26 3 -54.5 11t-49.5 24l6 5q-13 -3 -26 -8.5t-25.5 -10.5t-25.5 -8.5t-27 -3.5l-16 2l3 7q-14 -4 -30.5 -10t-30.5 -6q-10 0 -29 7t-38.5 17t-34 22t-14.5 23l2 3q-5 6 -13 11
t-15.5 10t-12.5 11t-5 14l11 9l-23 3l-8 30q2 -5 9.5 -4t10.5 4l-36 19l25 64q-14 52 -6.5 80t26.5 46.5t44.5 36t48.5 48.5l-3 12l66 80l15 2q28 0 63 2.5t71 7t71 10t64 12.5q-32 38 -67.5 72t-74.5 65q-11 -4 -27.5 -11.5t-31.5 -18t-25.5 -23.5t-10.5 -27l6 -19
q-18 -29 -40 -36.5t-45.5 -8t-48 0.5t-47.5 -9l-16 34l15 58l-17 25l173 54q-11 28 -36.5 42t-54.5 14v10l56 9q-93 46 -193.5 70t-204.5 24q-87 0 -172 -17t-164.5 -49.5t-152.5 -79.5t-135 -108q26 0 40.5 -13.5t26 -29t24.5 -29t35 -13.5l16 12l-2 22l33 47l-26 74
q5 3 15.5 10t16.5 7q30 0 46.5 -3t27.5 -11.5t21 -23t28 -37.5l36 28q10 -4 32.5 -13.5t44.5 -22t39 -26.5t17 -26q0 -15 -11.5 -24t-28.5 -15t-37.5 -9.5t-37.5 -7.5t-29 -10.5t-12 -16.5l58 -19q-20 -17 -43.5 -31.5t-47.5 -25.5l4 -17l-92 -36v-28l-7 -3l5 35l-4 1
q-7 0 -8.5 -3t-0.5 -7t2.5 -8t0.5 -6l-13 7l2 -4q0 -3 3.5 -9t8 -11.5t8 -10l3.5 -4.5q0 -3 -4.5 -6t-9.5 -4.5t-8 -2.5t0 -1q14 0 5.5 -2t-24.5 -10t-31.5 -23.5t-15.5 -43.5q0 -17 1.5 -33t-1.5 -33q-14 38 -42 58t-68 20l-43 -4l21 -14q-17 2 -35.5 4t-36.5 0.5t-34.5 -8
t-29.5 -20.5l-6 -45q0 -32 14.5 -52.5t48.5 -20.5q30 0 59 9.5t57 20.5q-9 -22 -20 -42.5t-16 -43.5l13 -6q24 16 44 5t39 -32t39 -43.5t43 -31.5l-34 -18l-80 45q1 -2 2.5 -9t-1.5 -3l-36 61q-32 1 -68.5 10.5t-72.5 24t-69.5 33t-58.5 37.5l-7 -107q0 -122 33 -238
t93.5 -218t146.5 -186.5t193 -142.5q-5 21 -1 42t10.5 42t13 42.5t6.5 42.5q0 32 -10 67.5t-24.5 71t-30.5 70.5t-27.5 66.5t-15.5 58t6 46.5l-15 7q6 14 16.5 27t20.5 26.5t17 27.5t7 30q0 10 -4.5 21.5t-6.5 20.5l21 -5q17 39 46.5 53.5t72.5 14.5q5 0 21 -4.5t34 -10.5
l34.5 -11.5t23.5 -7.5q0 -7 8.5 -9.5t8.5 -6.5l-2 -8q3 -1 14.5 -7.5t24 -14.5t23 -16t13.5 -11q18 0 49.5 -12t67.5 -30.5t73.5 -43t67.5 -50t49.5 -50t19.5 -43.5l-34 -36q4 -51 -7.5 -78.5t-34 -44.5t-53 -30t-64.5 -34q0 -20 -10 -43.5t-25.5 -44t-36 -34.5t-41.5 -14
l-42 32q2 -2 -0.5 -7.5t-4.5 -1.5q10 -19 5 -44t-17 -51t-27 -49.5t-27 -38.5q54 -14 108 -21t109 -7z" />
    <glyph glyph-name="uniE128" unicode="&#xe909;" 
d="M496 1165q13 0 29 -4.5t32.5 -10.5t32 -13t28.5 -12q-8 -1 -16.5 -2t-16.5 -1q-17 0 -31 5.5t-26.5 12.5t-24 12.5t-21.5 5.5t-18 -4t-16 -9q0 4 -7 4q7 7 26 11.5t29 4.5zM631 1120q41 0 75 -14q-14 -5 -28 -8.5t-29 -3.5q-20 0 -36 4q5 8 10 10.5t8 11.5zM1024 2048
q141 0 271.5 -37t244 -103.5t207.5 -160.5t160.5 -207.5t103.5 -244t37 -271.5t-37 -271.5t-103.5 -244t-160.5 -207.5t-207.5 -160.5t-244 -103.5t-271.5 -37t-271.5 37t-244 103.5t-207.5 160.5t-160.5 207.5t-103.5 244t-37 271.5t37 271.5t103.5 244t160.5 207.5
t207.5 160.5t244 103.5t271.5 37zM1786 1493q-14 22 -28 42.5t-29 40.5q-2 -9 -5.5 -13t-3.5 -18q0 -9 7.5 -17.5t18 -15.5t21.5 -12t19 -7zM1717 1591q0 -8 -3 -11h6q4 0 6 -1zM1024 128q114 0 223 29t206.5 82.5t180 130t144.5 171.5q-13 30 -25 61t-12 64q0 36 3.5 58.5
t6.5 38.5t4.5 29.5t-3.5 30.5t-17.5 41t-36.5 62q1 7 3.5 19t3.5 25t0.5 24.5t-4.5 18.5q-26 3 -54.5 11t-49.5 24l6 5q-13 -3 -26 -8.5t-25.5 -10.5t-25.5 -8.5t-27 -3.5l-16 2l3 7q-14 -4 -30.5 -10t-30.5 -6q-10 0 -29 7t-38.5 17t-34 22t-14.5 23l2 3q-5 6 -13 11
t-15.5 10t-12.5 11t-5 14l11 9l-23 3l-8 30q2 -5 9.5 -4t10.5 4l-36 19l25 64q-14 52 -6.5 80t26.5 46.5t44.5 36t48.5 48.5l-3 12l66 80l15 2q28 0 63 2.5t71 7t71 10t64 12.5q-32 38 -67.5 72t-74.5 65q-11 -4 -27.5 -11.5t-31.5 -18t-25.5 -23.5t-10.5 -27l6 -19
q-18 -29 -40 -36.5t-45.5 -8t-48 0.5t-47.5 -9l-16 34l15 58l-17 25l173 54q-11 28 -36.5 42t-54.5 14v10l56 9q-93 46 -193.5 70t-204.5 24q-87 0 -172 -17t-164.5 -49.5t-152.5 -79.5t-135 -108q26 0 40.5 -13.5t26 -29t24.5 -29t35 -13.5l16 12l-2 22l33 47l-26 74
q5 3 15.5 10t16.5 7q30 0 46.5 -3t27.5 -11.5t21 -23t28 -37.5l36 28q10 -4 32.5 -13.5t44.5 -22t39 -26.5t17 -26q0 -15 -11.5 -24t-28.5 -15t-37.5 -9.5t-37.5 -7.5t-29 -10.5t-12 -16.5l58 -19q-20 -17 -43.5 -31.5t-47.5 -25.5l4 -17l-92 -36v-28l-7 -3l5 35l-4 1
q-7 0 -8.5 -3t-0.5 -7t2.5 -8t0.5 -6l-13 7l2 -4q0 -3 3.5 -9t8 -11.5t8 -10l3.5 -4.5q0 -3 -4.5 -6t-9.5 -4.5t-8 -2.5t0 -1q14 0 5.5 -2t-24.5 -10t-31.5 -23.5t-15.5 -43.5q0 -17 1.5 -33t-1.5 -33q-14 38 -42 58t-68 20l-43 -4l21 -14q-17 2 -35.5 4t-36.5 0.5t-34.5 -8
t-29.5 -20.5l-6 -45q0 -32 14.5 -52.5t48.5 -20.5q30 0 59 9.5t57 20.5q-9 -22 -20 -42.5t-16 -43.5l13 -6q24 16 44 5t39 -32t39 -43.5t43 -31.5l-34 -18l-80 45q1 -2 2.5 -9t-1.5 -3l-36 61q-32 1 -68.5 10.5t-72.5 24t-69.5 33t-58.5 37.5l-7 -107q0 -122 33 -238
t93.5 -218t146.5 -186.5t193 -142.5q-5 21 -1 42t10.5 42t13 42.5t6.5 42.5q0 32 -10 67.5t-24.5 71t-30.5 70.5t-27.5 66.5t-15.5 58t6 46.5l-15 7q6 14 16.5 27t20.5 26.5t17 27.5t7 30q0 10 -4.5 21.5t-6.5 20.5l21 -5q17 39 46.5 53.5t72.5 14.5q5 0 21 -4.5t34 -10.5
l34.5 -11.5t23.5 -7.5q0 -7 8.5 -9.5t8.5 -6.5l-2 -8q3 -1 14.5 -7.5t24 -14.5t23 -16t13.5 -11q18 0 49.5 -12t67.5 -30.5t73.5 -43t67.5 -50t49.5 -50t19.5 -43.5l-34 -36q4 -51 -7.5 -78.5t-34 -44.5t-53 -30t-64.5 -34q0 -20 -10 -43.5t-25.5 -44t-36 -34.5t-41.5 -14
l-42 32q2 -2 -0.5 -7.5t-4.5 -1.5q10 -19 5 -44t-17 -51t-27 -49.5t-27 -38.5q54 -14 108 -21t109 -7z" />
    <glyph glyph-name="uniE129" unicode="&#xe129;" 
d="M1920 1792v-1024h-896v256h-640v-1024h-128v2048h896v-256h768zM1024 1152v768h-640v-768h640zM1792 1664h-640v-768h640v768z" />
    <glyph glyph-name="uniE129" unicode="&#xe7c1;" 
d="M1920 1792v-1024h-896v256h-640v-1024h-128v2048h896v-256h768zM1024 1152v768h-640v-768h640zM1792 1664h-640v-768h640v768z" />
    <glyph glyph-name="uniE12A" unicode="&#xe12a;" 
d="M0 1792h2048v-1536h-2048v1536zM1920 384v1280h-1792v-1280h1792zM1792 1536v-384h-1536v384h1536zM1664 1280v128h-1280v-128h1280zM1280 512v512h512v-512h-512zM1408 896v-256h256v256h-256zM1024 1024v-128h-768v128h768zM1024 640v-128h-768v128h768z" />
    <glyph glyph-name="uniE12A" unicode="&#xe8a1;" 
d="M0 1792h2048v-1536h-2048v1536zM1920 384v1280h-1792v-1280h1792zM1792 1536v-384h-1536v384h1536zM1664 1280v128h-1280v-128h1280zM1280 512v512h512v-512h-512zM1408 896v-256h256v256h-256zM1024 1024v-128h-768v128h768zM1024 640v-128h-768v128h768z" />
    <glyph glyph-name="uniE12B" unicode="&#xe12b;" 
d="M1024 2048q141 0 272 -36.5t245 -103t207.5 -160t160 -207.5t103 -245t36.5 -272t-36.5 -272t-103 -245t-160 -207.5t-207.5 -160t-245 -103t-272 -36.5t-272 36.5t-245 103t-207.5 160t-160 207.5t-103 244.5t-36.5 272.5q0 141 36.5 272t103 245t160 207.5t207.5 160
t244.5 103t272.5 36.5zM1833 1408q-38 81 -92 152.5t-120 130.5t-143 105t-161 75q36 -50 65 -106t51.5 -115.5t38.5 -120.5t28 -121h333zM1920 1024q0 133 -37 256h-363q8 -64 12 -127.5t4 -128.5t-4 -128.5t-12 -127.5h363q37 123 37 256zM1024 128q49 0 91.5 27t78.5 71
t64.5 99.5t50.5 112.5t37 110t23 92h-690q8 -39 23 -92t37 -110t50.5 -112.5t64.5 -99.5t78.5 -71t91.5 -27zM1391 768q8 64 12.5 127.5t4.5 128.5t-4.5 128.5t-12.5 127.5h-734q-8 -64 -12.5 -127.5t-4.5 -128.5t4.5 -128.5t12.5 -127.5h734zM128 1024q0 -133 37 -256h363
q-8 64 -12 127.5t-4 128.5t4 128.5t12 127.5h-363q-37 -123 -37 -256zM1024 1920q-49 0 -91.5 -27t-78.5 -71t-64.5 -99.5t-50.5 -112.5t-37 -110t-23 -92h690q-8 39 -23 92t-37 110t-50.5 112.5t-64.5 99.5t-78.5 71t-91.5 27zM731 1871q-84 -29 -161 -75t-143 -105
t-120 -130.5t-92 -152.5h333q12 60 28 121t38.5 120.5t51.5 115.5t65 106zM215 640q38 -81 92 -152.5t120 -130.5t143 -105t161 -75q-36 50 -65 106t-51.5 115.5t-38.5 120.5t-28 121h-333zM1317 177q84 29 161 75t143 105t120 130.5t92 152.5h-333q-12 -60 -28 -121
t-38.5 -120.5t-51.5 -115.5t-65 -106z" />
    <glyph glyph-name="uniE12B" unicode="&#xe774;" 
d="M1024 2048q141 0 272 -36.5t245 -103t207.5 -160t160 -207.5t103 -245t36.5 -272t-36.5 -272t-103 -245t-160 -207.5t-207.5 -160t-245 -103t-272 -36.5t-272 36.5t-245 103t-207.5 160t-160 207.5t-103 244.5t-36.5 272.5q0 141 36.5 272t103 245t160 207.5t207.5 160
t244.5 103t272.5 36.5zM1833 1408q-38 81 -92 152.5t-120 130.5t-143 105t-161 75q36 -50 65 -106t51.5 -115.5t38.5 -120.5t28 -121h333zM1920 1024q0 133 -37 256h-363q8 -64 12 -127.5t4 -128.5t-4 -128.5t-12 -127.5h363q37 123 37 256zM1024 128q49 0 91.5 27t78.5 71
t64.5 99.5t50.5 112.5t37 110t23 92h-690q8 -39 23 -92t37 -110t50.5 -112.5t64.5 -99.5t78.5 -71t91.5 -27zM1391 768q8 64 12.5 127.5t4.5 128.5t-4.5 128.5t-12.5 127.5h-734q-8 -64 -12.5 -127.5t-4.5 -128.5t4.5 -128.5t12.5 -127.5h734zM128 1024q0 -133 37 -256h363
q-8 64 -12 127.5t-4 128.5t4 128.5t12 127.5h-363q-37 -123 -37 -256zM1024 1920q-49 0 -91.5 -27t-78.5 -71t-64.5 -99.5t-50.5 -112.5t-37 -110t-23 -92h690q-8 39 -23 92t-37 110t-50.5 112.5t-64.5 99.5t-78.5 71t-91.5 27zM731 1871q-84 -29 -161 -75t-143 -105
t-120 -130.5t-92 -152.5h333q12 60 28 121t38.5 120.5t51.5 115.5t65 106zM215 640q38 -81 92 -152.5t120 -130.5t143 -105t161 -75q-36 50 -65 106t-51.5 115.5t-38.5 120.5t-28 121h-333zM1317 177q84 29 161 75t143 105t120 130.5t92 152.5h-333q-12 -60 -28 -121
t-38.5 -120.5t-51.5 -115.5t-65 -106z" />
    <glyph glyph-name="uniE12C" unicode="&#xe12c;" 
d="M640 1664h-128v128h128v-128zM1408 1792h128v-128h-128v128zM640 1408h-128v128h128v-128zM1408 1536h128v-128h-128v128zM512 384h128v-128h-128v128zM1408 384h128v-128h-128v128zM512 640h128v-128h-128v128zM1408 640h128v-128h-128v128zM0 1280h128v-512h-128v512z
M256 1280h128v-512h-128v512zM1664 1280h128v-512h-128v512zM2048 1280v-512h-128v512h128zM512 1280h1024v-512h-1024v512zM640 896h768v256h-768v-256z" />
    <glyph glyph-name="uniE12C" unicode="&#xe78a;" 
d="M640 1664h-128v128h128v-128zM1408 1792h128v-128h-128v128zM640 1408h-128v128h128v-128zM1408 1536h128v-128h-128v128zM512 384h128v-128h-128v128zM1408 384h128v-128h-128v128zM512 640h128v-128h-128v128zM1408 640h128v-128h-128v128zM0 1280h128v-512h-128v512z
M256 1280h128v-512h-128v512zM1664 1280h128v-512h-128v512zM2048 1280v-512h-128v512h128zM512 1280h1024v-512h-1024v512zM640 896h768v256h-768v-256z" />
    <glyph glyph-name="uniE12D" unicode="&#xe12d;" 
d="M2048 511h-912q-23 -84 -70.5 -154.5t-113 -121.5t-145.5 -79t-167 -28q-106 0 -199.5 40t-163 109.5t-109.5 163t-40 199.5v384h-128v768h384v-768h-128v-384q0 -79 30.5 -149t82.5 -122t122 -82.5t149 -30.5q61 0 117.5 18.5t104 52t83.5 80.5t57 104h-490v1280h292
l128 128h693l128 -128h295v-1280zM256 1152v256h-128v-256h128zM128 1664v-128h128v128h-128zM1920 1663h-220l-128 128h-587l-128 -128h-217v-1024h384v1h128v-1h768v1024zM1280 1535q79 0 149 -30.5t122 -82.5t82.5 -122t30.5 -149t-30.5 -149t-82.5 -122t-122 -82.5
t-149 -30.5t-149 30.5t-122 82.5t-82.5 122t-30.5 149t30.5 149t82.5 122t122 82.5t149 30.5zM1280 895q52 0 99 20.5t81.5 55t55 81t20.5 99.5q0 52 -20.5 99t-55 81.5t-81.5 55t-99 20.5q-53 0 -99.5 -20.5t-81 -55t-55 -81.5t-20.5 -99q0 -53 20.5 -99.5t55 -81t81 -55
t99.5 -20.5zM832 1535q26 0 44.5 -18.5t18.5 -44.5t-18.5 -44.5t-44.5 -18.5t-44.5 18.5t-18.5 44.5t18.5 44.5t44.5 18.5z" />
    <glyph glyph-name="uniE12D" unicode="&#xe8a2;" 
d="M2048 511h-912q-23 -84 -70.5 -154.5t-113 -121.5t-145.5 -79t-167 -28q-106 0 -199.5 40t-163 109.5t-109.5 163t-40 199.5v384h-128v768h384v-768h-128v-384q0 -79 30.5 -149t82.5 -122t122 -82.5t149 -30.5q61 0 117.5 18.5t104 52t83.5 80.5t57 104h-490v1280h292
l128 128h693l128 -128h295v-1280zM256 1152v256h-128v-256h128zM128 1664v-128h128v128h-128zM1920 1663h-220l-128 128h-587l-128 -128h-217v-1024h384v1h128v-1h768v1024zM1280 1535q79 0 149 -30.5t122 -82.5t82.5 -122t30.5 -149t-30.5 -149t-82.5 -122t-122 -82.5
t-149 -30.5t-149 30.5t-122 82.5t-82.5 122t-30.5 149t30.5 149t82.5 122t122 82.5t149 30.5zM1280 895q52 0 99 20.5t81.5 55t55 81t20.5 99.5q0 52 -20.5 99t-55 81.5t-81.5 55t-99 20.5q-53 0 -99.5 -20.5t-81 -55t-55 -81.5t-20.5 -99q0 -53 20.5 -99.5t55 -81t81 -55
t99.5 -20.5zM832 1535q26 0 44.5 -18.5t18.5 -44.5t-18.5 -44.5t-44.5 -18.5t-44.5 18.5t-18.5 44.5t18.5 44.5t44.5 18.5z" />
    <glyph glyph-name="uniE12E" unicode="&#xe12e;" 
d="M2029 109q19 -19 19 -45t-19 -45t-45 -19t-45 19l-785 784q-96 -79 -210.5 -121t-239.5 -42q-97 0 -187 25t-168 71t-142.5 110.5t-110.5 142.5t-71 168t-25 187t25 187t71 168t110.5 142.5t142.5 110.5t168 71t187 25t187 -25t168 -71t142.5 -110.5t110.5 -142.5
t71 -168t25 -187q0 -125 -42 -239.5t-121 -210.5zM704 768q119 0 224 45.5t183 123.5t123.5 183t45.5 224t-45.5 224t-123.5 183t-183 123.5t-224 45.5t-224 -45.5t-183 -123.5t-123.5 -183t-45.5 -224t45.5 -224t123.5 -183t183 -123.5t224 -45.5zM768 1408h256v-128h-256
v-256h-128v256h-256v128h256v256h128v-256z" />
    <glyph glyph-name="uniE12E" unicode="&#xe8a3;" 
d="M2029 109q19 -19 19 -45t-19 -45t-45 -19t-45 19l-785 784q-96 -79 -210.5 -121t-239.5 -42q-97 0 -187 25t-168 71t-142.5 110.5t-110.5 142.5t-71 168t-25 187t25 187t71 168t110.5 142.5t142.5 110.5t168 71t187 25t187 -25t168 -71t142.5 -110.5t110.5 -142.5
t71 -168t25 -187q0 -125 -42 -239.5t-121 -210.5zM704 768q119 0 224 45.5t183 123.5t123.5 183t45.5 224t-45.5 224t-123.5 183t-183 123.5t-224 45.5t-224 -45.5t-183 -123.5t-123.5 -183t-45.5 -224t45.5 -224t123.5 -183t183 -123.5t224 -45.5zM768 1408h256v-128h-256
v-256h-128v256h-256v128h256v256h128v-256z" />
    <glyph glyph-name="uniE12F" unicode="&#xe12f;" 
d="M0 1536v128h128v-128h-128zM384 1664h1664v-128h-1664v128zM0 384v128h128v-128h-128zM384 384v128h1664v-128h-1664zM896 1152v128h1152v-128h-1152zM1408 768v128h640v-128h-640z" />
    <glyph glyph-name="uniE12F" unicode="&#xe8a4;" 
d="M0 1536v128h128v-128h-128zM384 1664h1664v-128h-1664v128zM0 384v128h128v-128h-128zM384 384v128h1664v-128h-1664zM896 1152v128h1152v-128h-1152zM1408 768v128h640v-128h-640z" />
    <glyph glyph-name="uniE130" unicode="&#xe130;" 
d="M549 2048h1243v-1755l-293 -293h-1243v1755zM1664 347v1573h-1061l-219 -219v-1573h1061z" />
    <glyph glyph-name="uniE130" unicode="&#xe8a5;" 
d="M549 2048h1243v-1755l-293 -293h-1243v1755zM1664 347v1573h-1061l-219 -219v-1573h1061z" />
    <glyph glyph-name="uniE131" unicode="&#xe131;" 
d="M1920 768v-768h-896v768h128q0 76 17.5 145.5t56 122.5t99 84.5t147.5 31.5t147.5 -31.5t99 -84.5t56 -122.5t17.5 -145.5h128zM1280 768h384v64q0 40 -15 75t-41 61t-61 41t-75 15t-75 -15t-61 -41t-41 -61t-15 -75v-64zM1792 640h-640v-512h640v512zM384 128h512v-128
h-640v1755l293 293h1243v-860q-29 26 -61 47t-67 37v648h-1061l-219 -219v-1573z" />
    <glyph glyph-name="uniE131" unicode="&#xe8a6;" 
d="M1920 768v-768h-896v768h128q0 76 17.5 145.5t56 122.5t99 84.5t147.5 31.5t147.5 -31.5t99 -84.5t56 -122.5t17.5 -145.5h128zM1280 768h384v64q0 40 -15 75t-41 61t-61 41t-75 15t-75 -15t-61 -41t-41 -61t-15 -75v-64zM1792 640h-640v-512h640v512zM384 128h512v-128
h-640v1755l293 293h1243v-860q-29 26 -61 47t-67 37v648h-1061l-219 -219v-1573z" />
    <glyph glyph-name="uniE132" unicode="&#xe132;" 
d="M1755 1536h-475v475zM1792 1408v-1408h-1664v2048h1024v-640h640z" />
    <glyph glyph-name="uniE132" unicode="&#xe729;" 
d="M1755 1536h-475v475zM1792 1408v-1408h-1664v2048h1024v-640h640z" />
    <glyph glyph-name="uniE133" unicode="&#xe133;" 
d="M2048 1664v-128h-1280v128h1280zM768 1280h1280v-128h-1280v128zM768 896h1280v-128h-1280v128zM768 512h1280v-128h-1280v128zM478 1058l68 -68l-354 -354l-178 178l68 68l110 -110zM478 1826l68 -68l-354 -354l-178 178l68 68l110 -110z" />
    <glyph glyph-name="uniE133" unicode="&#xe762;" 
d="M2048 1664v-128h-1280v128h1280zM768 1280h1280v-128h-1280v128zM768 896h1280v-128h-1280v128zM768 512h1280v-128h-1280v128zM478 1058l68 -68l-354 -354l-178 178l68 68l110 -110zM478 1826l68 -68l-354 -354l-178 178l68 68l110 -110z" />
    <glyph glyph-name="uniE134" unicode="&#xe134;" 
d="M2048 1920v-1408h-1317l-475 -475v475h-256v1408h2048zM1920 1792h-1792v-1152h256v-293l293 293h1243v1152zM1280 1152h-128v256h256v-256q0 -27 -10 -50t-27.5 -40.5t-40.5 -27.5t-50 -10v128zM768 1152h-128v256h256v-256q0 -27 -10 -50t-27.5 -40.5t-40.5 -27.5
t-50 -10v128z" />
    <glyph glyph-name="uniE134" unicode="&#xe90a;" 
d="M2048 1920v-1408h-1317l-475 -475v475h-256v1408h2048zM1920 1792h-1792v-1152h256v-293l293 293h1243v1152zM1280 1152h-128v256h256v-256q0 -27 -10 -50t-27.5 -40.5t-40.5 -27.5t-50 -10v128zM768 1152h-128v256h256v-256q0 -27 -10 -50t-27.5 -40.5t-40.5 -27.5
t-50 -10v128z" />
    <glyph glyph-name="uniE135" unicode="&#xe135;" 
d="M64 1600h1920v-1152h-1920v1152v0z" />
    <glyph glyph-name="uniE135" unicode="&#xe8a8;" 
d="M64 1600h1920v-1152h-1920v1152v0z" />
    <glyph glyph-name="uniE135" unicode="&#xe20b;" 
d="M64 1600h1920v-1152h-1920v1152v0z" />
    <glyph glyph-name="uniE136" unicode="&#xe136;" 
d="M740 971q65 -33 117.5 -81.5t89.5 -108t57 -128t20 -141.5h-128q0 79 -30.5 149t-82.5 122t-122 82.5t-149 30.5t-149 -30.5t-122 -82.5t-82.5 -122t-30.5 -149h-128q0 73 20 141.5t57 128t89.5 108t117.5 81.5q-73 54 -114.5 136t-41.5 173q0 79 30.5 149t82.5 122
t122 82.5t149 30.5t149 -30.5t122 -82.5t82.5 -122t30.5 -149q0 -91 -41.5 -173t-114.5 -136zM256 1280q0 -53 20.5 -99.5t55 -81t81 -55t99.5 -20.5q52 0 99 20.5t81.5 55t55 81t20.5 99.5q0 52 -20.5 99t-55 81.5t-81.5 55t-99 20.5q-53 0 -99.5 -20.5t-81 -55t-55 -81.5
t-20.5 -99zM2048 1664v-128h-896v128h896zM1152 1152h896v-128h-896v128zM1152 640h896v-128h-896v128z" />
    <glyph glyph-name="uniE136" unicode="&#xe779;" 
d="M740 971q65 -33 117.5 -81.5t89.5 -108t57 -128t20 -141.5h-128q0 79 -30.5 149t-82.5 122t-122 82.5t-149 30.5t-149 -30.5t-122 -82.5t-82.5 -122t-30.5 -149h-128q0 73 20 141.5t57 128t89.5 108t117.5 81.5q-73 54 -114.5 136t-41.5 173q0 79 30.5 149t82.5 122
t122 82.5t149 30.5t149 -30.5t122 -82.5t82.5 -122t30.5 -149q0 -91 -41.5 -173t-114.5 -136zM256 1280q0 -53 20.5 -99.5t55 -81t81 -55t99.5 -20.5q52 0 99 20.5t81.5 55t55 81t20.5 99.5q0 52 -20.5 99t-55 81.5t-81.5 55t-99 20.5q-53 0 -99.5 -20.5t-81 -55t-55 -81.5
t-20.5 -99zM2048 1664v-128h-896v128h896zM1152 1152h896v-128h-896v128zM1152 640h896v-128h-896v128z" />
    <glyph glyph-name="uniE137" unicode="&#xe137;" 
d="M960 1792q62 0 136.5 -7t153.5 -22.5t159.5 -40t155 -58.5t139 -78t113 -99.5t76 -123t27.5 -147.5v-128q0 -40 -15 -75t-41 -61t-61 -41t-75 -15h-256q-56 0 -91 16.5t-55 43.5t-28.5 61.5t-12 70.5t-5 70.5t-7 61.5t-18.5 43.5t-39 16.5h-512q-26 0 -39 -16.5
t-18.5 -43.5t-7 -61.5t-5 -70.5t-12 -70.5t-28.5 -61.5t-55 -43.5t-91 -16.5h-256q-40 0 -75 15t-61 41t-41 61t-15 75v128q0 80 27.5 147.5t76 123t113 99.5t139 78t155 58.5t159.5 40t153.5 22.5t136.5 7zM1792 1216q0 84 -44 149.5t-115.5 115.5t-161.5 84.5t-182.5 56.5
t-179 32t-149.5 10t-149.5 -10t-179 -32t-182.5 -56.5t-161.5 -84.5t-115.5 -115.5t-44 -149.5v-128q0 -26 19 -45t45 -19h256q21 0 34.5 9.5t20.5 25.5t9.5 35.5t2.5 40.5q0 23 -1.5 44.5t-1.5 36.5q0 40 15 75t41 61t61 41t75 15h512q40 0 75 -15t61 -41t41 -61t15 -75
q0 -15 -1.5 -36.5t-1.5 -44.5q0 -21 2.5 -40.5t9.5 -35.5t20.5 -25.5t34.5 -9.5h256q26 0 45 19t19 45v128zM1235 557l90 -90l-365 -365l-365 365l90 90l211 -210v677h128v-677z" />
    <glyph glyph-name="uniE137" unicode="&#xe778;" 
d="M960 1792q62 0 136.5 -7t153.5 -22.5t159.5 -40t155 -58.5t139 -78t113 -99.5t76 -123t27.5 -147.5v-128q0 -40 -15 -75t-41 -61t-61 -41t-75 -15h-256q-56 0 -91 16.5t-55 43.5t-28.5 61.5t-12 70.5t-5 70.5t-7 61.5t-18.5 43.5t-39 16.5h-512q-26 0 -39 -16.5
t-18.5 -43.5t-7 -61.5t-5 -70.5t-12 -70.5t-28.5 -61.5t-55 -43.5t-91 -16.5h-256q-40 0 -75 15t-61 41t-41 61t-15 75v128q0 80 27.5 147.5t76 123t113 99.5t139 78t155 58.5t159.5 40t153.5 22.5t136.5 7zM1792 1216q0 84 -44 149.5t-115.5 115.5t-161.5 84.5t-182.5 56.5
t-179 32t-149.5 10t-149.5 -10t-179 -32t-182.5 -56.5t-161.5 -84.5t-115.5 -115.5t-44 -149.5v-128q0 -26 19 -45t45 -19h256q21 0 34.5 9.5t20.5 25.5t9.5 35.5t2.5 40.5q0 23 -1.5 44.5t-1.5 36.5q0 40 15 75t41 61t61 41t75 15h512q40 0 75 -15t61 -41t41 -61t15 -75
q0 -15 -1.5 -36.5t-1.5 -44.5q0 -21 2.5 -40.5t9.5 -35.5t20.5 -25.5t34.5 -9.5h256q26 0 45 19t19 45v128zM1235 557l90 -90l-365 -365l-365 365l90 90l211 -210v677h128v-677z" />
    <glyph glyph-name="uniE138" unicode="&#xe138;" 
d="M128 1920h1664v-1664h-1664v1664zM1664 1152v640h-640v-640h640zM896 1792h-640v-640h640v640zM256 1024v-640h640v640h-640zM1024 384h640v640h-640v-640z" />
    <glyph glyph-name="uniE138" unicode="&#xe8a9;" 
d="M128 1920h1664v-1664h-1664v1664zM1664 1152v640h-640v-640h640zM896 1792h-640v-640h640v640zM256 1024v-640h640v640h-640zM1024 384h640v640h-640v-640z" />
    <glyph glyph-name="uniE138" unicode="&#xe154;" 
d="M128 1920h1664v-1664h-1664v1664zM1664 1152v640h-640v-640h640zM896 1792h-640v-640h640v640zM256 1024v-640h640v640h-640zM1024 384h640v640h-640v-640z" />
    <glyph glyph-name="uniE139" unicode="&#xe139;" 
d="M1408 1600q0 -83 -29 -158.5t-80 -135t-121.5 -99t-153.5 -50.5v-1029l-64 -128l-64 128v1029q-83 11 -153.5 50.5t-121.5 99t-80 135t-29 158.5q0 93 35 174.5t96 142.5t142.5 96t174.5 35t174.5 -35t142.5 -96t96 -142.5t35 -174.5zM960 1280q66 0 124 25t101.5 68.5
t69 102t25.5 124.5t-25.5 124t-69 101.5t-101.5 69t-124 25.5t-124.5 -25.5t-102 -69t-68.5 -101.5t-25 -124t25 -124.5t68.5 -102t102 -68.5t124.5 -25z" />
    <glyph glyph-name="uniE139" unicode="&#xe7b7;" 
d="M1408 1600q0 -83 -29 -158.5t-80 -135t-121.5 -99t-153.5 -50.5v-1029l-64 -128l-64 128v1029q-83 11 -153.5 50.5t-121.5 99t-80 135t-29 158.5q0 93 35 174.5t96 142.5t142.5 96t174.5 35t174.5 -35t142.5 -96t96 -142.5t35 -174.5zM960 1280q66 0 124 25t101.5 68.5
t69 102t25.5 124.5t-25.5 124t-69 101.5t-101.5 69t-124 25.5t-124.5 -25.5t-102 -69t-68.5 -101.5t-25 -124t25 -124.5t68.5 -102t102 -68.5t124.5 -25z" />
    <glyph glyph-name="uniE13A" unicode="&#xe13a;" 
d="M1607 835q44 0 84.5 -16.5t71.5 -47.5l220 -220q31 -31 47.5 -71.5t16.5 -84.5t-16.5 -84.5t-47.5 -71.5l-14 -14q-54 -54 -99 -96t-94 -70.5t-109 -43.5t-143 -15q-125 0 -257 39t-262.5 108t-256 164t-237 207.5t-205.5 238t-162 256t-106 260.5t-38 252q0 83 14.5 142
t43 108t70 93.5t95.5 98.5l16 16q31 31 71 48t85 17q44 0 84.5 -17t71.5 -48l220 -220q31 -31 47.5 -71.5t16.5 -84.5t-15 -78.5t-37 -62.5t-48.5 -51t-48.5 -45t-37 -44.5t-15 -48.5q0 -38 27 -65l551 -551q27 -27 65 -27q26 0 48.5 15t44.5 37t45 48.5t51 48.5t62.5 37
t78.5 15zM1524 128q72 0 120.5 13.5t87.5 39t76 63.5t85 86q27 27 27 65q0 18 -14.5 42.5t-37.5 51.5t-51.5 55.5t-56 54t-51 47t-36.5 34.5q-27 27 -66 27q-26 0 -48 -15t-44 -37t-45.5 -48.5t-51.5 -48.5t-62.5 -37t-78.5 -15t-84.5 16.5t-71.5 47.5l-551 551
q-31 31 -47.5 71.5t-16.5 84.5t15 78.5t37 62.5t48.5 51.5t48.5 45.5t37 44t15 48q0 39 -27 66q-13 13 -34.5 36.5t-47 51t-54 56t-55.5 51.5t-51.5 37.5t-42.5 14.5q-38 0 -65 -27q-48 -48 -85.5 -85t-64 -76t-40 -87.5t-13.5 -119.5q0 -112 36.5 -231t101 -238
t152.5 -234.5t192 -218.5t219.5 -190t234 -150.5t236 -99t225.5 -35.5z" />
    <glyph glyph-name="uniE13A" unicode="&#xe717;" 
d="M1607 835q44 0 84.5 -16.5t71.5 -47.5l220 -220q31 -31 47.5 -71.5t16.5 -84.5t-16.5 -84.5t-47.5 -71.5l-14 -14q-54 -54 -99 -96t-94 -70.5t-109 -43.5t-143 -15q-125 0 -257 39t-262.5 108t-256 164t-237 207.5t-205.5 238t-162 256t-106 260.5t-38 252q0 83 14.5 142
t43 108t70 93.5t95.5 98.5l16 16q31 31 71 48t85 17q44 0 84.5 -17t71.5 -48l220 -220q31 -31 47.5 -71.5t16.5 -84.5t-15 -78.5t-37 -62.5t-48.5 -51t-48.5 -45t-37 -44.5t-15 -48.5q0 -38 27 -65l551 -551q27 -27 65 -27q26 0 48.5 15t44.5 37t45 48.5t51 48.5t62.5 37
t78.5 15zM1524 128q72 0 120.5 13.5t87.5 39t76 63.5t85 86q27 27 27 65q0 18 -14.5 42.5t-37.5 51.5t-51.5 55.5t-56 54t-51 47t-36.5 34.5q-27 27 -66 27q-26 0 -48 -15t-44 -37t-45.5 -48.5t-51.5 -48.5t-62.5 -37t-78.5 -15t-84.5 16.5t-71.5 47.5l-551 551
q-31 31 -47.5 71.5t-16.5 84.5t15 78.5t37 62.5t48.5 51.5t48.5 45.5t37 44t15 48q0 39 -27 66q-13 13 -34.5 36.5t-47 51t-54 56t-55.5 51.5t-51.5 37.5t-42.5 14.5q-38 0 -65 -27q-48 -48 -85.5 -85t-64 -76t-40 -87.5t-13.5 -119.5q0 -112 36.5 -231t101 -238
t152.5 -234.5t192 -218.5t219.5 -190t234 -150.5t236 -99t225.5 -35.5z" />
    <glyph glyph-name="uniE13B" unicode="&#xe13b;" 
d="M1280 1016v-120h-768v640h768v-120l256 128v-656zM1408 1337l-128 -65v-112l128 -65v242zM1152 1024v384h-512v-384h512zM0 1920h2048v-1408h-1317l-475 -475v475h-256v1408zM1920 640v1152h-1792v-1152h256v-293l293 293h1243z" />
    <glyph glyph-name="uniE13B" unicode="&#xe8aa;" 
d="M1280 1016v-120h-768v640h768v-120l256 128v-656zM1408 1337l-128 -65v-112l128 -65v242zM1152 1024v384h-512v-384h512zM0 1920h2048v-1408h-1317l-475 -475v475h-256v1408zM1920 640v1152h-1792v-1152h256v-293l293 293h1243z" />
    <glyph glyph-name="uniE13C" unicode="&#xe13c;" 
d="M2048 640v-128h-1798l163 -163l-90 -90l-317 317l317 317l90 -90l-163 -163h1798zM1635 1245l163 163h-1798v128h1798l-163 163l90 90l317 -317l-317 -317z" />
    <glyph glyph-name="uniE13C" unicode="&#xe8ab;" 
d="M2048 640v-128h-1798l163 -163l-90 -90l-317 317l317 317l90 -90l-163 -163h1798zM1635 1245l163 163h-1798v128h1798l-163 163l90 90l317 -317l-317 -317z" />
    <glyph glyph-name="uniE13D" unicode="&#xe13d;" 
d="M1330 845q136 -47 245.5 -131.5t186 -195.5t117.5 -243t41 -275h-128q0 164 -58.5 304.5t-161.5 243.5t-243.5 161.5t-304.5 58.5q-107 0 -206 -27t-184.5 -76.5t-155 -119t-119 -155t-76.5 -184.5t-27 -206h-128q0 144 42 275.5t119 241.5t186.5 194t244.5 133
q-78 42 -140 102t-105.5 133.5t-67 157t-23.5 171.5q0 133 50 249.5t137 203.5t203.5 137t249.5 50t249.5 -50t203.5 -137t137 -203.5t50 -249.5q0 -88 -23.5 -171t-67 -156t-105 -133.5t-138.5 -102.5zM512 1408q0 -106 40.5 -199t110 -162.5t162.5 -110t199 -40.5
t199 40.5t162.5 110t110 162.5t40.5 199t-40.5 199t-110 162.5t-162.5 110t-199 40.5t-199 -40.5t-162.5 -110t-110 -162.5t-40.5 -199z" />
    <glyph glyph-name="uniE13D" unicode="&#xe77b;" 
d="M1330 845q136 -47 245.5 -131.5t186 -195.5t117.5 -243t41 -275h-128q0 164 -58.5 304.5t-161.5 243.5t-243.5 161.5t-304.5 58.5q-107 0 -206 -27t-184.5 -76.5t-155 -119t-119 -155t-76.5 -184.5t-27 -206h-128q0 144 42 275.5t119 241.5t186.5 194t244.5 133
q-78 42 -140 102t-105.5 133.5t-67 157t-23.5 171.5q0 133 50 249.5t137 203.5t203.5 137t249.5 50t249.5 -50t203.5 -137t137 -203.5t50 -249.5q0 -88 -23.5 -171t-67 -156t-105 -133.5t-138.5 -102.5zM512 1408q0 -106 40.5 -199t110 -162.5t162.5 -110t199 -40.5
t199 40.5t162.5 110t110 162.5t40.5 199t-40.5 199t-110 162.5t-162.5 110t-199 40.5t-199 -40.5t-162.5 -110t-110 -162.5t-40.5 -199z" />
    <glyph glyph-name="uniE13D" unicode="&#xe2af;" 
d="M1330 845q136 -47 245.5 -131.5t186 -195.5t117.5 -243t41 -275h-128q0 164 -58.5 304.5t-161.5 243.5t-243.5 161.5t-304.5 58.5q-107 0 -206 -27t-184.5 -76.5t-155 -119t-119 -155t-76.5 -184.5t-27 -206h-128q0 144 42 275.5t119 241.5t186.5 194t244.5 133
q-78 42 -140 102t-105.5 133.5t-67 157t-23.5 171.5q0 133 50 249.5t137 203.5t203.5 137t249.5 50t249.5 -50t203.5 -137t137 -203.5t50 -249.5q0 -88 -23.5 -171t-67 -156t-105 -133.5t-138.5 -102.5zM512 1408q0 -106 40.5 -199t110 -162.5t162.5 -110t199 -40.5
t199 40.5t162.5 110t110 162.5t40.5 199t-40.5 199t-110 162.5t-162.5 110t-199 40.5t-199 -40.5t-162.5 -110t-110 -162.5t-40.5 -199z" />
    <glyph glyph-name="uniE13E" unicode="&#xe13e;" 
d="M255 899v254h770v-254h-770zM1281 639h-1282v770h1282v-130h-1152v-510h1152v-130zM2049 1409v-770h-386v130h256v510h-256v130h386zM1537 481q111 -96 255 -96h1v-130h-1q-176 0 -318 110q-70 -54 -151.5 -82t-170.5 -28h-1v130h1q145 0 255 93v1096q-52 44 -116.5 66.5
t-138.5 22.5h-1v130h1q91 0 172.5 -27t149.5 -79q138 106 318 106h1v-130h-1q-148 0 -255 -92v-1090z" />
    <glyph glyph-name="uniE13E" unicode="&#xe8ac;" 
d="M255 899v254h770v-254h-770zM1281 639h-1282v770h1282v-130h-1152v-510h1152v-130zM2049 1409v-770h-386v130h256v510h-256v130h386zM1537 481q111 -96 255 -96h1v-130h-1q-176 0 -318 110q-70 -54 -151.5 -82t-170.5 -28h-1v130h1q145 0 255 93v1096q-52 44 -116.5 66.5
t-138.5 22.5h-1v130h1q91 0 172.5 -27t149.5 -79q138 106 318 106h1v-130h-1q-148 0 -255 -92v-1090z" />
    <glyph glyph-name="uniE13F" unicode="&#xe13f;" 
d="M2048 1152v-128h-821l298 -299l-74 -74l-438 437l438 437l74 -74l-298 -299h821zM0 640v896h896v-896h-896zM128 1408v-640h640v640h-640z" />
    <glyph glyph-name="uniE13F" unicode="&#xe976;" 
d="M2048 1152v-128h-821l298 -299l-74 -74l-438 437l438 437l74 -74l-298 -299h821zM0 640v896h896v-896h-896zM128 1408v-640h640v640h-640z" />
    <glyph glyph-name="uniE140" unicode="&#xe140;" 
d="M0 1792h1920v-1408h-1920v1408zM1792 512v1152h-768v-128h-128v128h-768v-1152h768v128h128v-128h768zM1152 1022v128h317l-95 96l68 68l226 -228l-226 -224l-68 68l93 92h-315zM896 1152v256h128v-256h-128zM896 768v256h128v-256h-128z" />
    <glyph glyph-name="uniE141" unicode="&#xe141;" 
d="M2048 1536v-896h-64q-78 0 -143 33.5t-112 94.5h-494q-28 -59 -70 -106.5t-94.5 -80.5t-113 -51t-125.5 -18h-64v512h-640l-128 64l128 64h640v512h64q65 0 125.5 -18t113 -51t94.5 -80.5t70 -106.5h494q47 61 112 94.5t143 33.5h64zM1920 1397q-24 -8 -41 -20
t-30.5 -26.5t-25 -32.5t-23.5 -38h-653l-15 43q-28 79 -91 134t-145 72v-882q82 17 145 72t91 134l15 43h653q12 -20 23.5 -38t25 -32.5t30.5 -26.5t41 -20v618z" />
    <glyph glyph-name="uniE141" unicode="&#xe718;" 
d="M2048 1536v-896h-64q-78 0 -143 33.5t-112 94.5h-494q-28 -59 -70 -106.5t-94.5 -80.5t-113 -51t-125.5 -18h-64v512h-640l-128 64l128 64h640v512h64q65 0 125.5 -18t113 -51t94.5 -80.5t70 -106.5h494q47 61 112 94.5t143 33.5h64zM1920 1397q-24 -8 -41 -20
t-30.5 -26.5t-25 -32.5t-23.5 -38h-653l-15 43q-28 79 -91 134t-145 72v-882q82 17 145 72t91 134l15 43h653q12 -20 23.5 -38t25 -32.5t30.5 -26.5t41 -20v618z" />
    <glyph glyph-name="uniE142" unicode="&#xe142;" 
d="M2048 1664v-128h-2048v128h2048zM0 1280h2048v-128h-2048v128zM1280 384h-1280v128h1280v-128zM1408 802l640 160v-706q0 -31 -14.5 -54.5t-38 -40t-52 -25t-55.5 -8.5t-55.5 8.5t-52 25t-38 40t-14.5 54.5t14.5 54.5t38 40t52 25t55.5 8.5q15 0 32 -3v417l-384 -96v-574
q0 -32 -16 -56t-40.5 -40t-54.5 -24t-57 -8t-57 8t-54.5 24t-40.5 40t-16 56t16 56t40.5 40t54.5 24t57 8q10 0 20 -1t20 -3v550zM1280 768h-1280v128h1280v-128z" />
    <glyph glyph-name="uniE142" unicode="&#xe90b;" 
d="M2048 1664v-128h-2048v128h2048zM0 1280h2048v-128h-2048v128zM1280 384h-1280v128h1280v-128zM1408 802l640 160v-706q0 -31 -14.5 -54.5t-38 -40t-52 -25t-55.5 -8.5t-55.5 8.5t-52 25t-38 40t-14.5 54.5t14.5 54.5t38 40t52 25t55.5 8.5q15 0 32 -3v417l-384 -96v-574
q0 -32 -16 -56t-40.5 -40t-54.5 -24t-57 -8t-57 8t-54.5 24t-40.5 40t-16 56t16 56t40.5 40t54.5 24t57 8q10 0 20 -1t20 -3v550zM1280 768h-1280v128h1280v-128z" />
    <glyph glyph-name="uniE143" unicode="&#xe143;" 
d="M1024 2048h1024v-1024h-128v805l-1827 -1826l-90 90l1826 1827h-805v128v0z" />
    <glyph glyph-name="uniE143" unicode="&#xe8ad;" 
d="M1024 2048h1024v-1024h-128v805l-1827 -1826l-90 90l1826 1827h-805v128v0z" />
    <glyph glyph-name="uniE144" unicode="&#xe144;" 
d="M1783 1664q30 0 55 -12t43 -31.5t28.5 -46t10.5 -54.5v-864q0 -29 -10.5 -55t-28.5 -45.5t-43 -31.5t-55 -12h-1646q-30 0 -55 12t-43 31.5t-28.5 45.5t-10.5 55v864q0 28 10.5 54.5t28.5 46t43 31.5t55 12h1646zM1792 1520q0 11 -9 16h-1646q-9 -5 -9 -16v-864
q0 -11 9 -16h1646q9 5 9 16v864zM384 1280h-128v128h128v-128zM256 1152h256v-128h-256v128zM1408 1152h256v-128h-256v128zM1408 896h256v-128h-256v128zM256 896h256v-128h-256v128zM640 896h640v-128h-640v128zM640 1280h-128v128h128v-128zM640 1152h128v-128h-128v128z
M896 1152h128v-128h-128v128zM1152 1152h128v-128h-128v128zM896 1280h-128v128h128v-128zM1152 1280h-128v128h128v-128zM1408 1280h-128v128h128v-128zM1536 1408h128v-128h-128v128z" />
    <glyph glyph-name="uniE144" unicode="&#xe765;" 
d="M1783 1664q30 0 55 -12t43 -31.5t28.5 -46t10.5 -54.5v-864q0 -29 -10.5 -55t-28.5 -45.5t-43 -31.5t-55 -12h-1646q-30 0 -55 12t-43 31.5t-28.5 45.5t-10.5 55v864q0 28 10.5 54.5t28.5 46t43 31.5t55 12h1646zM1792 1520q0 11 -9 16h-1646q-9 -5 -9 -16v-864
q0 -11 9 -16h1646q9 5 9 16v864zM384 1280h-128v128h128v-128zM256 1152h256v-128h-256v128zM1408 1152h256v-128h-256v128zM1408 896h256v-128h-256v128zM256 896h256v-128h-256v128zM640 896h640v-128h-640v128zM640 1280h-128v128h128v-128zM640 1152h128v-128h-128v128z
M896 1152h128v-128h-128v128zM1152 1152h128v-128h-128v128zM896 1280h-128v128h128v-128zM1152 1280h-128v128h128v-128zM1408 1280h-128v128h128v-128zM1536 1408h128v-128h-128v128z" />
    <glyph glyph-name="uniE145" unicode="&#xe145;" 
d="M0 1664h2048v-1152h-2048v1152zM128 1536v-896h384v896h-384zM1920 640v896h-1280v-896h1280z" />
    <glyph glyph-name="uniE145" unicode="&#xe90c;" 
d="M0 1664h2048v-1152h-2048v1152zM128 1536v-896h384v896h-384zM1920 640v896h-1280v-896h1280z" />
    <glyph glyph-name="uniE146" unicode="&#xe146;" 
d="M0 1664h2048v-1152h-2048v1152zM128 1536v-896h1280v896h-1280zM1920 640v896h-384v-896h384z" />
    <glyph glyph-name="uniE146" unicode="&#xe90d;" 
d="M0 1664h2048v-1152h-2048v1152zM128 1536v-896h1280v896h-1280zM1920 640v896h-384v-896h384z" />
    <glyph glyph-name="uniE147" unicode="&#xe147;" 
d="M0 1664h2048v-1152h-2048v1152zM1920 1536h-1792v-640h1792v640zM128 640h1792v128h-1792v-128z" />
    <glyph glyph-name="uniE147" unicode="&#xe90e;" 
d="M0 1664h2048v-1152h-2048v1152zM1920 1536h-1792v-640h1792v640zM128 640h1792v128h-1792v-128z" />
    <glyph glyph-name="uniE148" unicode="&#xe148;" 
d="M259 1315l90 90l701 -701l-701 -701l-90 90l611 611zM1789 1955l-611 -611l611 -611l-90 -90l-701 701l701 701z" />
    <glyph glyph-name="uniE148" unicode="&#xe8af;" 
d="M259 1315l90 90l701 -701l-701 -701l-90 90l611 611zM1789 1955l-611 -611l611 -611l-90 -90l-701 701l701 701z" />
    <glyph glyph-name="uniE149" unicode="&#xe149;" 
d="M1297 2010q166 -45 304 -140.5t237.5 -226t154.5 -289t55 -330.5q0 -141 -36.5 -272t-103 -245t-160 -207.5t-207.5 -160t-245 -103t-272 -36.5t-272 36.5t-245 103t-207.5 160t-160 207.5t-103 244.5t-36.5 272.5q0 140 37 272t105.5 248.5t166.5 212t221 163.5h-274
v128h512v-512h-128v297q-117 -56 -211.5 -140.5t-161.5 -190t-103 -227.5t-36 -251q0 -123 32 -237.5t90.5 -214t140.5 -181.5t181.5 -140.5t213.5 -90.5t238 -32q123 0 237.5 32t214 90.5t181.5 140.5t140.5 181.5t90.5 213.5t32 238q0 150 -48.5 289t-135.5 253
t-207.5 197.5t-265.5 123.5l34 123v0z" />
    <glyph glyph-name="uniE149" unicode="&#xe72c;" 
d="M1297 2010q166 -45 304 -140.5t237.5 -226t154.5 -289t55 -330.5q0 -141 -36.5 -272t-103 -245t-160 -207.5t-207.5 -160t-245 -103t-272 -36.5t-272 36.5t-245 103t-207.5 160t-160 207.5t-103 244.5t-36.5 272.5q0 140 37 272t105.5 248.5t166.5 212t221 163.5h-274
v128h512v-512h-128v297q-117 -56 -211.5 -140.5t-161.5 -190t-103 -227.5t-36 -251q0 -123 32 -237.5t90.5 -214t140.5 -181.5t181.5 -140.5t213.5 -90.5t238 -32q123 0 237.5 32t214 90.5t181.5 140.5t140.5 181.5t90.5 213.5t32 238q0 150 -48.5 289t-135.5 253
t-207.5 197.5t-265.5 123.5l34 123v0z" />
    <glyph glyph-name="uniE14A" unicode="&#xe14a;" 
d="M1024 1280q53 0 99.5 -20t81.5 -55t55 -81.5t20 -99.5t-20 -99.5t-55 -81.5t-81.5 -55t-99.5 -20t-99.5 20t-81.5 55t-55 81.5t-20 99.5t20 99.5t55 81.5t81.5 55t99.5 20zM1024 896q27 0 50 10t40.5 27.5t27.5 40.5t10 50t-10 50t-27.5 40.5t-40.5 27.5t-50 10t-50 -10
t-40.5 -27.5t-27.5 -40.5t-10 -50t10 -50t27.5 -40.5t40.5 -27.5t50 -10zM2048 1024q0 -140 -37 -272t-105.5 -248.5t-166.5 -212.5t-221 -163h274v-128h-512v512h128v-297q117 55 211.5 140t161.5 190.5t103 227.5t36 251q0 123 -32 237.5t-90.5 214t-140.5 181.5
t-181.5 140.5t-214 90.5t-237.5 32t-237.5 -32t-214 -90.5t-181.5 -140.5t-140.5 -181.5t-90.5 -214t-32 -237.5q0 -150 48.5 -289t135.5 -253t207.5 -197.5t265.5 -123.5l-34 -123q-166 45 -304 140.5t-237.5 226t-154.5 289t-55 330.5q0 141 36.5 272t103 245t160 207.5
t207.5 160t244.5 103t272.5 36.5q141 0 272 -36.5t245 -103t207.5 -160t160 -207.5t103 -245t36.5 -272z" />
    <glyph glyph-name="uniE14B" unicode="&#xe14b;" 
d="M1765 1408q-127 -4 -240.5 -35.5t-215 -87t-192.5 -132.5t-172 -170q-34 -39 -68 -76t-72 -72q-168 -153 -372 -238t-433 -85v128q131 0 248.5 30.5t222.5 86t198.5 134t177.5 174.5q35 41 70.5 79t75.5 74q81 72 170.5 130t187 99t202 63.5t213.5 25.5l-147 147l90 90
l302 -301l-302 -301l-90 90zM805 1212q-22 -24 -42.5 -48.5t-43.5 -48.5q-74 68 -157.5 122.5t-174.5 92.5t-188 58t-199 20v128q229 0 433 -85.5t372 -238.5zM1709 877l302 -301l-302 -301l-90 90l147 147q-110 3 -215.5 26t-203.5 64.5t-188.5 100.5t-171.5 133
q22 24 42.5 48.5t43.5 48.5q72 -66 152 -119t167.5 -91t181 -59t191.5 -24l-146 147z" />
    <glyph glyph-name="uniE14B" unicode="&#xe8b1;" 
d="M1765 1408q-127 -4 -240.5 -35.5t-215 -87t-192.5 -132.5t-172 -170q-34 -39 -68 -76t-72 -72q-168 -153 -372 -238t-433 -85v128q131 0 248.5 30.5t222.5 86t198.5 134t177.5 174.5q35 41 70.5 79t75.5 74q81 72 170.5 130t187 99t202 63.5t213.5 25.5l-147 147l90 90
l302 -301l-302 -301l-90 90zM805 1212q-22 -24 -42.5 -48.5t-43.5 -48.5q-74 68 -157.5 122.5t-174.5 92.5t-188 58t-199 20v128q229 0 433 -85.5t372 -238.5zM1709 877l302 -301l-302 -301l-90 90l147 147q-110 3 -215.5 26t-203.5 64.5t-188.5 100.5t-171.5 133
q22 24 42.5 48.5t43.5 48.5q72 -66 152 -119t167.5 -91t181 -59t191.5 -24l-146 147z" />
    <glyph glyph-name="uniE14C" unicode="&#xe14c;" 
d="M0 768v128h128v-128h-128zM0 1152v128h128v-128h-128zM384 1152v128h1664v-128h-1664zM0 1536v128h128v-128h-128zM384 1664h1664v-128h-1664v128zM384 768v128h1664v-128h-1664zM0 384v128h128v-128h-128zM384 384v128h1664v-128h-1664z" />
    <glyph glyph-name="uniE14C" unicode="&#xe8fd;" 
d="M0 768v128h128v-128h-128zM0 1152v128h128v-128h-128zM384 1152v128h1664v-128h-1664zM0 1536v128h128v-128h-128zM384 1664h1664v-128h-1664v128zM384 768v128h1664v-128h-1664zM0 384v128h128v-128h-128zM384 384v128h1664v-128h-1664z" />
    <glyph glyph-name="uniE14C" unicode="&#xe292;" 
d="M0 768v128h128v-128h-128zM0 1152v128h128v-128h-128zM384 1152v128h1664v-128h-1664zM0 1536v128h128v-128h-128zM384 1664h1664v-128h-1664v128zM384 768v128h1664v-128h-1664zM0 384v128h128v-128h-128zM384 384v128h1664v-128h-1664z" />
    <glyph glyph-name="uniE14D" unicode="&#xe14d;" 
d="M1792 1536v-1280q0 -53 -20.5 -99.5t-55 -81t-81.5 -55t-99 -20.5h-1152q-53 0 -99.5 20.5t-81 55t-55 81t-20.5 99.5v1280h256v128q0 79 30.5 149t82.5 122t122 82.5t149 30.5q104 0 193 -52q89 52 191 52q79 0 149 -30.5t122 -82.5t82.5 -122t30.5 -149v-128h256z
M1408 1664q0 52 -20.5 99t-55 81.5t-81.5 55t-99 20.5q-45 0 -85 -15q29 -36 46 -71t25.5 -70t11 -71.5t2.5 -76.5v-80h256v128zM512 1536h512v128q0 52 -20.5 99t-55 81.5t-81.5 55t-99 20.5q-53 0 -99.5 -20.5t-81 -55t-55 -81.5t-20.5 -99v-128zM1314 128q-34 60 -34 128
v1152h-1024v-1152q0 -27 10 -50t27.5 -40.5t40.5 -27.5t50 -10h930zM1664 1408h-256v-1152q0 -27 10 -50t27.5 -40.5t40.5 -27.5t50 -10t50 10t40.5 27.5t27.5 40.5t10 50v1152z" />
    <glyph glyph-name="uniE14D" unicode="&#xe719;" 
d="M1792 1536v-1280q0 -53 -20.5 -99.5t-55 -81t-81.5 -55t-99 -20.5h-1152q-53 0 -99.5 20.5t-81 55t-55 81t-20.5 99.5v1280h256v128q0 79 30.5 149t82.5 122t122 82.5t149 30.5q104 0 193 -52q89 52 191 52q79 0 149 -30.5t122 -82.5t82.5 -122t30.5 -149v-128h256z
M1408 1664q0 52 -20.5 99t-55 81.5t-81.5 55t-99 20.5q-45 0 -85 -15q29 -36 46 -71t25.5 -70t11 -71.5t2.5 -76.5v-80h256v128zM512 1536h512v128q0 52 -20.5 99t-55 81.5t-81.5 55t-99 20.5q-53 0 -99.5 -20.5t-81 -55t-55 -81.5t-20.5 -99v-128zM1314 128q-34 60 -34 128
v1152h-1024v-1152q0 -27 10 -50t27.5 -40.5t40.5 -27.5t50 -10h930zM1664 1408h-256v-1152q0 -27 10 -50t27.5 -40.5t40.5 -27.5t50 -10t50 10t40.5 27.5t27.5 40.5t10 50v1152z" />
    <glyph glyph-name="uniE14E" unicode="&#xe14e;" 
d="M0 1920v128h128v-128h-128zM0 1664v128h128v-128h-128zM0 1408v128h128v-128h-128zM0 1152v128h128v-128h-128zM0 896v128h128v-128h-128zM0 640v128h128v-128h-128zM0 384v128h128v-128h-128zM0 128v128h128v-128h-128zM1792 1664v128h128v-128h-128zM1792 1408v128h128
v-128h-128zM1792 1152v128h128v-128h-128zM1792 896v128h128v-128h-128zM1792 640v128h128v-128h-128zM1792 384v128h128v-128h-128zM1792 128v128h128v-128h-128zM384 2048v-128h-128v128h128zM640 2048v-128h-128v128h128zM896 2048v-128h-128v128h128zM1152 2048v-128
h-128v128h128zM1408 2048v-128h-128v128h128zM1536 1920v128h128v-128h-128zM256 128v128h128v-128h-128zM512 128v128h128v-128h-128zM768 128v128h128v-128h-128zM1024 128v128h128v-128h-128zM1280 128v128h128v-128h-128zM1536 128v128h128v-128h-128zM1792 2048h128
v-128h-128v128zM1536 1664v-1152h-1152v1152h1152zM1408 1152v384h-384v-384h384zM896 1536h-384v-384h384v384zM512 1024v-384h384v384h-384zM1024 640h384v384h-384v-384z" />
    <glyph glyph-name="uniE14E" unicode="&#xe8b3;" 
d="M0 1920v128h128v-128h-128zM0 1664v128h128v-128h-128zM0 1408v128h128v-128h-128zM0 1152v128h128v-128h-128zM0 896v128h128v-128h-128zM0 640v128h128v-128h-128zM0 384v128h128v-128h-128zM0 128v128h128v-128h-128zM1792 1664v128h128v-128h-128zM1792 1408v128h128
v-128h-128zM1792 1152v128h128v-128h-128zM1792 896v128h128v-128h-128zM1792 640v128h128v-128h-128zM1792 384v128h128v-128h-128zM1792 128v128h128v-128h-128zM384 2048v-128h-128v128h128zM640 2048v-128h-128v128h128zM896 2048v-128h-128v128h128zM1152 2048v-128
h-128v128h128zM1408 2048v-128h-128v128h128zM1536 1920v128h128v-128h-128zM256 128v128h128v-128h-128zM512 128v128h128v-128h-128zM768 128v128h128v-128h-128zM1024 128v128h128v-128h-128zM1280 128v128h128v-128h-128zM1536 128v128h128v-128h-128zM1792 2048h128
v-128h-128v128zM1536 1664v-1152h-1152v1152h1152zM1408 1152v384h-384v-384h384zM896 1536h-384v-384h384v384zM512 1024v-384h384v384h-384zM1024 640h384v384h-384v-384z" />
    <glyph glyph-name="uniE14F" unicode="&#xe14f;" 
d="M1408 384h-1408v896h1408v-896zM1280 1152h-1152v-640h1152v640zM128 1408h-128v128h128v-128zM128 1664h-128v128h128v-128zM128 1920h-128v128h128v-128zM896 1920h-128v128h128v-128zM384 1920h-128v128h128v-128zM640 1920h-128v128h128v-128zM896 1664h-128v128h128
v-128zM896 1408h-128v128h128v-128zM1627 1920q102 -102 180.5 -197.5t132 -200t81 -225.5t27.5 -273q0 -141 -36.5 -272t-103 -245t-160 -207.5t-207.5 -160t-245 -103t-272 -36.5v128q123 0 237.5 32t214 90.5t181.5 140.5t140.5 181.5t90.5 214t32 237.5q0 133 -25.5 242
t-74 204t-120 182t-164.5 177v-293h-128v512h512v-128h-293z" />
    <glyph glyph-name="uniE14F" unicode="&#xe8b4;" 
d="M1408 384h-1408v896h1408v-896zM1280 1152h-1152v-640h1152v640zM128 1408h-128v128h128v-128zM128 1664h-128v128h128v-128zM128 1920h-128v128h128v-128zM896 1920h-128v128h128v-128zM384 1920h-128v128h128v-128zM640 1920h-128v128h128v-128zM896 1664h-128v128h128
v-128zM896 1408h-128v128h128v-128zM1627 1920q102 -102 180.5 -197.5t132 -200t81 -225.5t27.5 -273q0 -141 -36.5 -272t-103 -245t-160 -207.5t-207.5 -160t-245 -103t-272 -36.5v128q123 0 237.5 32t214 90.5t181.5 140.5t140.5 181.5t90.5 214t32 237.5q0 133 -25.5 242
t-74 204t-120 182t-164.5 177v-293h-128v512h512v-128h-293z" />
    <glyph glyph-name="uniE150" unicode="&#xe150;" 
d="M557 1459l-308 -309h1543v-128h-1540l305 -305l-90 -90l-461 461l461 461zM1920 1536h128v-896h-128v896z" />
    <glyph glyph-name="uniE150" unicode="&#xe8b5;" 
d="M557 1459l-308 -309h1543v-128h-1540l305 -305l-90 -90l-461 461l461 461zM1920 1536h128v-896h-128v896z" />
    <glyph glyph-name="uniE151" unicode="&#xe151;" 
d="M1024 1152v-128l-772 -1l289 -290l-90 -90l-445 445l445 445l90 -90l-292 -292zM1152 1536h896v-896h-896v896zM1920 1152v256h-256v-256h256zM1536 1408h-256v-256h256v256zM1280 1024v-256h256v256h-256zM1664 768h256v256h-256v-256z" />
    <glyph glyph-name="uniE151" unicode="&#xe8b6;" 
d="M1024 1152v-128l-772 -1l289 -290l-90 -90l-445 445l445 445l90 -90l-292 -292zM1152 1536h896v-896h-896v896zM1920 1152v256h-256v-256h256zM1536 1408h-256v-256h256v256zM1280 1024v-256h256v256h-256zM1664 768h256v256h-256v-256z" />
    <glyph glyph-name="uniE152" unicode="&#xe152;" 
d="M896 1920h896v-1664h-1664v896h768v768zM896 384v640h-640v-640h640zM1664 384v640h-640v-640h640zM1024 1152h640v640h-640v-640z" />
    <glyph glyph-name="uniE153" unicode="&#xe153;" 
d="M128 1920h896v-896h-896v896zM896 1152v640h-640v-640h640z" />
    <glyph glyph-name="uniE155" unicode="&#xe155;" 
d="M256 640v256h-256v1152h1536v-256h256v-768h-128v640h-128v-768h-1152v-128h896v-128h-1024zM1408 1024v896h-1280v-896h1280zM256 1792h1024v-640h-1024v640zM384 1280h768v384h-768v-384zM1728 896q66 0 124 -25.5t101.5 -69t69 -101.5t25.5 -124t-25.5 -124
t-69 -101.5t-101.5 -69t-124 -25.5q-47 0 -92 13.5t-84 39.5l-304 -303l-90 90l303 304q-26 39 -39.5 84t-13.5 92q0 66 25.5 124t69 101.5t101.5 69t124 25.5zM1728 384q40 0 75 15t61 41t41 61t15 75t-15 75t-41 61t-61 41t-75 15t-75 -15t-61 -41t-41 -61t-15 -75t15 -75
t41 -61t61 -41t75 -15z" />
    <glyph glyph-name="uniE155" unicode="&#xe7c5;" 
d="M256 640v256h-256v1152h1536v-256h256v-768h-128v640h-128v-768h-1152v-128h896v-128h-1024zM1408 1024v896h-1280v-896h1280zM256 1792h1024v-640h-1024v640zM384 1280h768v384h-768v-384zM1728 896q66 0 124 -25.5t101.5 -69t69 -101.5t25.5 -124t-25.5 -124
t-69 -101.5t-101.5 -69t-124 -25.5q-47 0 -92 13.5t-84 39.5l-304 -303l-90 90l303 304q-26 39 -39.5 84t-13.5 92q0 66 25.5 124t69 101.5t101.5 69t124 25.5zM1728 384q40 0 75 15t61 41t41 61t15 75t-15 75t-41 61t-61 41t-75 15t-75 -15t-61 -41t-41 -61t-15 -75t15 -75
t41 -61t61 -41t75 -15z" />
    <glyph glyph-name="uniE156" unicode="&#xe156;" 
d="M1253 972q67 -32 119.5 -80.5t89 -108.5t55.5 -129t19 -142h-128q0 82 -29.5 152t-81 121.5t-121.5 81t-152 29.5q-81 0 -151 -30t-121.5 -81.5t-81.5 -121.5t-30 -151h-128q0 73 19.5 142t56.5 128.5t89.5 108t118.5 80.5q-73 54 -114.5 136t-41.5 173q0 79 30.5 149
t82.5 122t122 82.5t149 30.5t149 -30.5t122 -82.5t82.5 -122t30.5 -149q0 -91 -41 -172.5t-114 -135.5zM768 1280q0 -53 20.5 -99.5t55 -81t81 -55t99.5 -20.5q52 0 99 20.5t81.5 55t55 81t20.5 99.5q0 52 -20.5 99t-55 81.5t-81.5 55t-99 20.5q-53 0 -99.5 -20.5t-81 -55
t-55 -81.5t-20.5 -99zM128 128h384v-128h-512v512h128v-384zM1920 512h128v-512h-512v128h384v384zM2048 2048v-512h-128v384h-384v128h512zM128 1536h-128v512h512v-128h-384v-384z" />
    <glyph glyph-name="uniE156" unicode="&#xe8b8;" 
d="M1253 972q67 -32 119.5 -80.5t89 -108.5t55.5 -129t19 -142h-128q0 82 -29.5 152t-81 121.5t-121.5 81t-152 29.5q-81 0 -151 -30t-121.5 -81.5t-81.5 -121.5t-30 -151h-128q0 73 19.5 142t56.5 128.5t89.5 108t118.5 80.5q-73 54 -114.5 136t-41.5 173q0 79 30.5 149
t82.5 122t122 82.5t149 30.5t149 -30.5t122 -82.5t82.5 -122t30.5 -149q0 -91 -41 -172.5t-114 -135.5zM768 1280q0 -53 20.5 -99.5t55 -81t81 -55t99.5 -20.5q52 0 99 20.5t81.5 55t55 81t20.5 99.5q0 52 -20.5 99t-55 81.5t-81.5 55t-99 20.5q-53 0 -99.5 -20.5t-81 -55
t-55 -81.5t-20.5 -99zM128 128h384v-128h-512v512h128v-384zM1920 512h128v-512h-512v128h384v384zM2048 2048v-512h-128v384h-384v128h512zM128 1536h-128v512h512v-128h-384v-384z" />
    <glyph glyph-name="uniE158" unicode="&#xe158;" 
d="M1792 1536h256v-1280h-1792v256h-256v1280h1792v-256zM128 1664v-1024h1536v1024h-1536zM1920 384v1024h-128v-896h-1408v-128h1536zM256 768v768h1280v-768h-1280zM384 1408v-512h1024v512h-1024z" />
    <glyph glyph-name="uniE158" unicode="&#xe8b9;" 
d="M1792 1536h256v-1280h-1792v256h-256v1280h1792v-256zM128 1664v-1024h1536v1024h-1536zM1920 384v1024h-128v-896h-1408v-128h1536zM256 768v768h1280v-768h-1280zM384 1408v-512h1024v512h-1024z" />
    <glyph glyph-name="uniE159" unicode="&#xe159;" 
d="M1536 2048q27 0 50 -10t40.5 -27.5t27.5 -40.5t10 -50v-1152h-1115l-165 165v987q0 27 10 50t27.5 40.5t40.5 27.5t50 10h1024zM768 1536h512v384h-512v-384zM1280 1152h-512v-256h128v128h128v-128h256v256zM1536 1920h-128v-512h-768v512h-128v-933l91 -91h37v384h768
v-384h128v1024zM1299 429l90 -90l-301 -302l-301 302l90 90l147 -147v358h128v-358z" />
    <glyph glyph-name="uniE159" unicode="&#xe78c;" 
d="M1536 2048q27 0 50 -10t40.5 -27.5t27.5 -40.5t10 -50v-1152h-1115l-165 165v987q0 27 10 50t27.5 40.5t40.5 27.5t50 10h1024zM768 1536h512v384h-512v-384zM1280 1152h-512v-256h128v128h128v-128h256v256zM1536 1920h-128v-512h-768v512h-128v-933l91 -91h37v384h768
v-384h128v1024zM1299 429l90 -90l-301 -302l-301 302l90 90l147 -147v358h128v-358z" />
    <glyph glyph-name="uniE15A" unicode="&#xe15a;" 
d="M0 1792h2048v-1536h-2048v1536zM1920 384v1280h-1792v-1280h1792zM1792 1536v-1024h-1536v1024h1536zM1664 640v768h-1280v-768h1280zM0 0v128h1280v-128h-1280z" />
    <glyph glyph-name="uniE15A" unicode="&#xe8ba;" 
d="M0 1792h2048v-1536h-2048v1536zM1920 384v1280h-1792v-1280h1792zM1792 1536v-1024h-1536v1024h1536zM1664 640v768h-1280v-768h1280zM0 0v128h1280v-128h-1280z" />
    <glyph glyph-name="uniE15B" unicode="&#xe15b;" 
d="M1920 1920v-1792h-1792v1792h1792zM1792 1792h-1536v-1536h1536v1536z" />
    <glyph glyph-name="uniE15B" unicode="&#xe71a;" 
d="M1920 1920v-1792h-1792v1792h1792zM1792 1792h-1536v-1536h1536v1536z" />
    <glyph glyph-name="uniE15C" unicode="&#xe15c;" 
d="M384 256v128h1664v-128h-1664zM0 1664v128h128v-128h-128zM0 640v128h128v-128h-128zM384 640v128h1664v-128h-1664zM384 1792h1664v-128h-1664v128zM384 1280v128h1664v-128h-1664z" />
    <glyph glyph-name="uniE15C" unicode="&#xe8bc;" 
d="M384 256v128h1664v-128h-1664zM0 1664v128h128v-128h-128zM0 640v128h128v-128h-128zM384 640v128h1664v-128h-1664zM384 1792h1664v-128h-1664v128zM384 1280v128h1664v-128h-1664z" />
    <glyph glyph-name="uniE15D" unicode="&#xe15d;" 
d="M1673 1929q90 -90 159.5 -195t117.5 -220.5t72.5 -239t24.5 -250.5t-24.5 -250.5t-72.5 -239t-117.5 -220.5t-159.5 -195l-90 90q81 81 143.5 175.5t105.5 198.5t65.5 215.5t22.5 225.5t-22.5 225.5t-65.5 215.5t-105.5 198.5t-143.5 175.5zM1402 1658
q63 -63 111.5 -136.5t82 -154.5t51 -168t17.5 -175q0 -89 -17.5 -175.5t-51 -167.5t-82 -154.5t-111.5 -136.5l-91 91q108 108 166.5 249t58.5 294t-58.5 294t-166.5 249zM1130 1386q72 -72 111 -166t39 -196t-39 -196t-111 -166l-90 90q54 54 83 124.5t29 147.5t-29 147.5
t-83 124.5zM677 1792h91v-1536h-91l-384 384h-293v768h293zM640 1573l-293 -293h-219v-512h219l293 -293v1098z" />
    <glyph glyph-name="uniE15D" unicode="&#xe767;" 
d="M1673 1929q90 -90 159.5 -195t117.5 -220.5t72.5 -239t24.5 -250.5t-24.5 -250.5t-72.5 -239t-117.5 -220.5t-159.5 -195l-90 90q81 81 143.5 175.5t105.5 198.5t65.5 215.5t22.5 225.5t-22.5 225.5t-65.5 215.5t-105.5 198.5t-143.5 175.5zM1402 1658
q63 -63 111.5 -136.5t82 -154.5t51 -168t17.5 -175q0 -89 -17.5 -175.5t-51 -167.5t-82 -154.5t-111.5 -136.5l-91 91q108 108 166.5 249t58.5 294t-58.5 294t-166.5 249zM1130 1386q72 -72 111 -166t39 -196t-39 -196t-111 -166l-90 90q54 54 83 124.5t29 147.5t-29 147.5
t-83 124.5zM677 1792h91v-1536h-91l-384 384h-293v768h293zM640 1573l-293 -293h-219v-512h219l293 -293v1098z" />
    <glyph glyph-name="uniE15E" unicode="&#xe15e;" 
d="M1930 1828q26 -45 47.5 -86t37.5 -83t24.5 -87.5t8.5 -99.5q0 -79 -20.5 -152.5t-58 -137.5t-90.5 -117t-117 -90.5t-137.5 -58t-152.5 -20.5q-23 0 -46.5 2t-46.5 6l-806 -806q-48 -48 -109.5 -73t-128.5 -25q-69 0 -130 26.5t-106.5 72t-72 106.5t-26.5 130
q0 67 25 128.5t73 109.5l806 806q-4 23 -6 46.5t-2 46.5q0 79 20.5 152.5t58 137.5t90.5 117t117 90.5t137.5 58t152.5 20.5q54 0 99.5 -8.5t87.5 -24.5t83 -37.5t86 -47.5l-394 -394l102 -102zM1472 1024q93 0 174.5 35.5t142 96t96 142t35.5 174.5q0 73 -24 141l-360 -359
l-282 282l359 360q-68 24 -141 24q-93 0 -174.5 -35.5t-142 -96t-96 -142t-35.5 -174.5q0 -35 6 -68t14 -66l-855 -856q-29 -29 -45 -67t-16 -80t16.5 -80t44.5 -66t66 -44.5t80 -16.5t80 16t67 45l856 855q33 -8 66 -14t68 -6z" />
    <glyph glyph-name="uniE15E" unicode="&#xe90f;" 
d="M1930 1828q26 -45 47.5 -86t37.5 -83t24.5 -87.5t8.5 -99.5q0 -79 -20.5 -152.5t-58 -137.5t-90.5 -117t-117 -90.5t-137.5 -58t-152.5 -20.5q-23 0 -46.5 2t-46.5 6l-806 -806q-48 -48 -109.5 -73t-128.5 -25q-69 0 -130 26.5t-106.5 72t-72 106.5t-26.5 130
q0 67 25 128.5t73 109.5l806 806q-4 23 -6 46.5t-2 46.5q0 79 20.5 152.5t58 137.5t90.5 117t117 90.5t137.5 58t152.5 20.5q54 0 99.5 -8.5t87.5 -24.5t83 -37.5t86 -47.5l-394 -394l102 -102zM1472 1024q93 0 174.5 35.5t142 96t96 142t35.5 174.5q0 73 -24 141l-360 -359
l-282 282l359 360q-68 24 -141 24q-93 0 -174.5 -35.5t-142 -96t-96 -142t-35.5 -174.5q0 -35 6 -68t14 -66l-855 -856q-29 -29 -45 -67t-16 -80t16.5 -80t44.5 -66t66 -44.5t80 -16.5t80 16t67 45l856 855q33 -8 66 -14t68 -6z" />
    <glyph glyph-name="uniE15F" unicode="&#xe15f;" 
d="M0 1920h2048v-1408h-1317l-475 -475v475h-256v1408zM1920 640v1152h-1792v-1152h256v-293l293 293h1243z" />
    <glyph glyph-name="uniE15F" unicode="&#xe8bd;" 
d="M0 1920h2048v-1408h-1317l-475 -475v475h-256v1408zM1920 640v1152h-1792v-1152h256v-293l293 293h1243z" />
    <glyph glyph-name="uniE160" unicode="&#xe160;" 
d="M1792 1499v-1499h-1664v2048h1115zM1280 1536h293l-293 293v-293zM1664 128v1280h-512v512h-896v-1792h1408z" />
    <glyph glyph-name="uniE160" unicode="&#xe7c3;" 
d="M1792 1499v-1499h-1664v2048h1115zM1280 1536h293l-293 293v-293zM1664 128v1280h-512v512h-896v-1792h1408z" />
    <glyph glyph-name="uniE161" unicode="&#xe161;" 
d="M1664 1920h384v-1792h-2048v1792h384v128h128v-128h1024v128h128v-128zM384 1792h-256v-256h1792v256h-256v-128h-128v128h-1024v-128h-128v128zM128 256h1792v1152h-1792v-1152zM384 384v896h512v-896h-512zM512 1152v-640h256v640h-256zM1152 384v896h512v-896h-512z
M1280 1152v-640h256v640h-256z" />
    <glyph glyph-name="uniE161" unicode="&#xe8bf;" 
d="M1664 1920h384v-1792h-2048v1792h384v128h128v-128h1024v128h128v-128zM384 1792h-256v-256h1792v256h-256v-128h-128v128h-1024v-128h-128v128zM128 256h1792v1152h-1792v-1152zM384 384v896h512v-896h-512zM512 1152v-640h256v640h-256zM1152 384v896h512v-896h-512z
M1280 1152v-640h256v640h-256z" />
    <glyph glyph-name="uniE162" unicode="&#xe162;" 
d="M1664 1920h384v-1792h-2048v1792h384v128h128v-128h1024v128h128v-128zM384 1792h-256v-256h1792v256h-256v-128h-128v128h-1024v-128h-128v128zM128 256h1792v1152h-1792v-1152zM768 384v896h128v-896h-128zM384 384v896h128v-896h-128zM1536 384v896h128v-896h-128z
M1152 384v896h128v-896h-128z" />
    <glyph glyph-name="uniE162" unicode="&#xe8c0;" 
d="M1664 1920h384v-1792h-2048v1792h384v128h128v-128h1024v128h128v-128zM384 1792h-256v-256h1792v256h-256v-128h-128v128h-1024v-128h-128v128zM128 256h1792v1152h-1792v-1152zM768 384v896h128v-896h-128zM384 384v896h128v-896h-128zM1536 384v896h128v-896h-128z
M1152 384v896h128v-896h-128z" />
    <glyph glyph-name="uniE163" unicode="&#xe163;" 
d="M768 1280h128v-128h-128v128zM1152 512h128v-128h-128v128zM1536 1280h128v-128h-128v128zM1152 1280h128v-128h-128v128zM768 1024h128v-128h-128v128zM384 1024h128v-128h-128v128zM1536 1024h128v-128h-128v128zM1152 1024h128v-128h-128v128zM768 768h128v-128h-128
v128zM384 768h128v-128h-128v128zM1536 768h128v-128h-128v128zM1152 768h128v-128h-128v128zM768 512h128v-128h-128v128zM384 512h128v-128h-128v128zM2048 1920v-1792h-2048v1792h384v128h128v-128h1024v128h128v-128h384zM128 1792v-256h1792v256h-256v-128h-128v128
h-1024v-128h-128v128h-256zM1920 256v1152h-1792v-1152h1792z" />
    <glyph glyph-name="uniE163" unicode="&#xe787;" 
d="M768 1280h128v-128h-128v128zM1152 512h128v-128h-128v128zM1536 1280h128v-128h-128v128zM1152 1280h128v-128h-128v128zM768 1024h128v-128h-128v128zM384 1024h128v-128h-128v128zM1536 1024h128v-128h-128v128zM1152 1024h128v-128h-128v128zM768 768h128v-128h-128
v128zM384 768h128v-128h-128v128zM1536 768h128v-128h-128v128zM1152 768h128v-128h-128v128zM768 512h128v-128h-128v128zM384 512h128v-128h-128v128zM2048 1920v-1792h-2048v1792h384v128h128v-128h1024v128h128v-128h384zM128 1792v-256h1792v256h-256v-128h-128v128
h-1024v-128h-128v128h-256zM1920 256v1152h-1792v-1152h1792z" />
    </font>
</defs>
</svg>
